# MagicaVoxel @ Ephtracy

# group
g bulletBlue

# material
mtllib bulletBlue.mtl
usemtl palette

# normals
vn -1 0 0
vn 1 0 0
vn 0 0 1
vn 0 0 -1
vn 0 -1 0
vn 0 1 0

# texcoords
vt 0.724609 0.5
vt 0.798828 0.5
vt 0.876953 0.5

# verts
v -6 1 -1
v -6 1 -4
v -6 4 -1
v -6 4 -4
v 11 1 -1
v 11 1 -2
v 11 1 -3
v 11 1 -4
v 11 2 -1
v 11 2 -2
v 11 2 -3
v 11 2 -4
v 11 3 -1
v 11 3 -2
v 11 3 -3
v 11 3 -4
v 11 4 -1
v 11 4 -2
v 11 4 -3
v 11 4 -4
v 12 1 -2
v 12 1 -3
v 12 2 -1
v 12 2 -2
v 12 2 -3
v 12 2 -4
v 12 3 -1
v 12 3 -2
v 12 3 -3
v 12 3 -4
v 12 4 -2
v 12 4 -3
v 13 2 -2
v 13 2 -3
v 13 3 -2
v 13 3 -3
v -6 1 -1
v -6 4 -1
v -4 1 -1
v -4 4 -1
v 9 1 -1
v 9 4 -1
v 11 1 -1
v 11 2 -1
v 11 3 -1
v 11 4 -1
v 12 2 -1
v 12 3 -1
v 11 1 -2
v 11 2 -2
v 11 3 -2
v 11 4 -2
v 12 1 -2
v 12 2 -2
v 12 3 -2
v 12 4 -2
v 13 2 -2
v 13 3 -2
v 11 1 -3
v 11 2 -3
v 11 3 -3
v 11 4 -3
v 12 1 -3
v 12 2 -3
v 12 3 -3
v 12 4 -3
v 13 2 -3
v 13 3 -3
v -6 1 -4
v -6 4 -4
v -4 1 -4
v -4 4 -4
v 9 1 -4
v 9 4 -4
v 11 1 -4
v 11 2 -4
v 11 3 -4
v 11 4 -4
v 12 2 -4
v 12 3 -4
v -6 1 -1
v -4 1 -1
v 9 1 -1
v 11 1 -1
v 11 1 -2
v 12 1 -2
v 11 1 -3
v 12 1 -3
v -6 1 -4
v -4 1 -4
v 9 1 -4
v 11 1 -4
v 11 2 -1
v 12 2 -1
v 11 2 -2
v 12 2 -2
v 13 2 -2
v 11 2 -3
v 12 2 -3
v 13 2 -3
v 11 2 -4
v 12 2 -4
v 11 3 -1
v 12 3 -1
v 11 3 -2
v 12 3 -2
v 13 3 -2
v 11 3 -3
v 12 3 -3
v 13 3 -3
v 11 3 -4
v 12 3 -4
v -6 4 -1
v -4 4 -1
v 9 4 -1
v 11 4 -1
v 11 4 -2
v 12 4 -2
v 11 4 -3
v 12 4 -3
v -6 4 -4
v -4 4 -4
v 9 4 -4
v 11 4 -4

# faces
f 3/3/1 2/3/1 1/3/1
f 4/3/1 2/3/1 3/3/1
f 5/1/2 6/1/2 9/1/2
f 9/1/2 6/1/2 10/1/2
f 7/1/2 8/1/2 11/1/2
f 11/1/2 8/1/2 12/1/2
f 13/1/2 14/1/2 17/1/2
f 17/1/2 14/1/2 18/1/2
f 15/1/2 16/1/2 19/1/2
f 19/1/2 16/1/2 20/1/2
f 21/1/2 22/1/2 24/1/2
f 24/1/2 22/1/2 25/1/2
f 23/1/2 24/1/2 27/1/2
f 27/1/2 24/1/2 28/1/2
f 25/1/2 26/1/2 29/1/2
f 29/1/2 26/1/2 30/1/2
f 28/1/2 29/1/2 31/1/2
f 31/1/2 29/1/2 32/1/2
f 33/1/2 34/1/2 35/1/2
f 35/1/2 34/1/2 36/1/2
f 39/3/3 38/3/3 37/3/3
f 40/3/3 38/3/3 39/3/3
f 41/2/3 40/2/3 39/2/3
f 42/2/3 40/2/3 41/2/3
f 43/1/3 42/1/3 41/1/3
f 44/1/3 42/1/3 43/1/3
f 45/1/3 42/1/3 44/1/3
f 46/1/3 42/1/3 45/1/3
f 47/1/3 45/1/3 44/1/3
f 48/1/3 45/1/3 47/1/3
f 53/1/3 50/1/3 49/1/3
f 54/1/3 50/1/3 53/1/3
f 55/1/3 52/1/3 51/1/3
f 56/1/3 52/1/3 55/1/3
f 57/1/3 55/1/3 54/1/3
f 58/1/3 55/1/3 57/1/3
f 59/1/4 60/1/4 63/1/4
f 63/1/4 60/1/4 64/1/4
f 61/1/4 62/1/4 65/1/4
f 65/1/4 62/1/4 66/1/4
f 64/1/4 65/1/4 67/1/4
f 67/1/4 65/1/4 68/1/4
f 69/3/4 70/3/4 71/3/4
f 71/3/4 70/3/4 72/3/4
f 71/2/4 72/2/4 73/2/4
f 73/2/4 72/2/4 74/2/4
f 73/1/4 74/1/4 75/1/4
f 75/1/4 74/1/4 76/1/4
f 76/1/4 74/1/4 77/1/4
f 77/1/4 74/1/4 78/1/4
f 76/1/4 77/1/4 79/1/4
f 79/1/4 77/1/4 80/1/4
f 85/1/5 84/1/5 83/1/5
f 87/1/5 85/1/5 83/1/5
f 87/1/5 86/1/5 85/1/5
f 88/1/5 86/1/5 87/1/5
f 89/3/5 82/3/5 81/3/5
f 90/2/5 83/2/5 82/2/5
f 90/3/5 82/3/5 89/3/5
f 91/1/5 87/1/5 83/1/5
f 91/2/5 83/2/5 90/2/5
f 92/1/5 87/1/5 91/1/5
f 95/1/5 94/1/5 93/1/5
f 96/1/5 94/1/5 95/1/5
f 99/1/5 97/1/5 96/1/5
f 100/1/5 97/1/5 99/1/5
f 101/1/5 99/1/5 98/1/5
f 102/1/5 99/1/5 101/1/5
f 103/1/6 104/1/6 105/1/6
f 105/1/6 104/1/6 106/1/6
f 106/1/6 107/1/6 109/1/6
f 109/1/6 107/1/6 110/1/6
f 108/1/6 109/1/6 111/1/6
f 111/1/6 109/1/6 112/1/6
f 115/1/6 116/1/6 117/1/6
f 115/1/6 117/1/6 119/1/6
f 117/1/6 118/1/6 119/1/6
f 119/1/6 118/1/6 120/1/6
f 113/3/6 114/3/6 121/3/6
f 114/2/6 115/2/6 122/2/6
f 121/3/6 114/3/6 122/3/6
f 115/1/6 119/1/6 123/1/6
f 122/2/6 115/2/6 123/2/6
f 123/1/6 119/1/6 124/1/6
