# MagicaVoxel @ Ephtracy

# group
g stug-1

# material
mtllib stug-1.mtl
usemtl palette

# normals
vn -1 0 0
vn 1 0 0
vn 0 0 1
vn 0 0 -1
vn 0 -1 0
vn 0 1 0

# texcoords
vt 0.939453 0.5
vt 0.943359 0.5

# verts
v -11.5 1 0.5
v -11.5 1 -0.5
v -11.5 2 1.5
v -11.5 2 0.5
v -11.5 2 -0.5
v -11.5 2 -1.5
v -11.5 3 1.5
v -11.5 3 0.5
v -11.5 3 -0.5
v -11.5 3 -1.5
v -11.5 4 0.5
v -11.5 4 -0.5
v 7.5 1 1.5
v 7.5 1 -1.5
v 7.5 2 0.5
v 7.5 2 -0.5
v 7.5 3 0.5
v 7.5 3 -0.5
v 7.5 4 1.5
v 7.5 4 -1.5
v 8.5 0 1.5
v 8.5 0 -1.5
v 8.5 1 2.5
v 8.5 1 1.5
v 8.5 1 -1.5
v 8.5 1 -2.5
v 8.5 4 2.5
v 8.5 4 1.5
v 8.5 4 -1.5
v 8.5 4 -2.5
v 8.5 5 1.5
v 8.5 5 -1.5
v -9.5 1 0.5
v -9.5 1 -0.5
v -9.5 2 1.5
v -9.5 2 0.5
v -9.5 2 -0.5
v -9.5 2 -1.5
v -9.5 3 1.5
v -9.5 3 0.5
v -9.5 3 -0.5
v -9.5 3 -1.5
v -9.5 4 0.5
v -9.5 4 -0.5
v 8.5 1 1.5
v 8.5 1 -1.5
v 8.5 3 1.5
v 8.5 3 -1.5
v 9.5 0 0.5
v 9.5 0 -0.5
v 9.5 1 0.5
v 9.5 1 -0.5
v 11.5 0 1.5
v 11.5 0 0.5
v 11.5 0 -0.5
v 11.5 0 -1.5
v 11.5 1 2.5
v 11.5 1 1.5
v 11.5 1 0.5
v 11.5 1 -0.5
v 11.5 1 -1.5
v 11.5 1 -2.5
v 11.5 3 1.5
v 11.5 3 -1.5
v 11.5 4 2.5
v 11.5 4 1.5
v 11.5 4 -1.5
v 11.5 4 -2.5
v 11.5 5 1.5
v 11.5 5 -1.5
v 8.5 1 2.5
v 8.5 4 2.5
v 11.5 1 2.5
v 11.5 4 2.5
v -11.5 2 1.5
v -11.5 3 1.5
v -9.5 2 1.5
v -9.5 3 1.5
v 7.5 1 1.5
v 7.5 4 1.5
v 8.5 0 1.5
v 8.5 1 1.5
v 8.5 4 1.5
v 8.5 5 1.5
v 11.5 0 1.5
v 11.5 1 1.5
v 11.5 4 1.5
v 11.5 5 1.5
v -11.5 1 0.5
v -11.5 2 0.5
v -11.5 3 0.5
v -11.5 4 0.5
v -9.5 1 0.5
v -9.5 2 0.5
v -9.5 3 0.5
v -9.5 4 0.5
v 7.5 2 0.5
v 7.5 3 0.5
v 9.5 0 -0.5
v 9.5 1 -0.5
v 11.5 0 -0.5
v 11.5 1 -0.5
v 8.5 1 -1.5
v 8.5 3 -1.5
v 11.5 1 -1.5
v 11.5 3 -1.5
v 8.5 1 1.5
v 8.5 3 1.5
v 11.5 1 1.5
v 11.5 3 1.5
v 9.5 0 0.5
v 9.5 1 0.5
v 11.5 0 0.5
v 11.5 1 0.5
v -11.5 1 -0.5
v -11.5 2 -0.5
v -11.5 3 -0.5
v -11.5 4 -0.5
v -9.5 1 -0.5
v -9.5 2 -0.5
v -9.5 3 -0.5
v -9.5 4 -0.5
v 7.5 2 -0.5
v 7.5 3 -0.5
v -11.5 2 -1.5
v -11.5 3 -1.5
v -9.5 2 -1.5
v -9.5 3 -1.5
v 7.5 1 -1.5
v 7.5 4 -1.5
v 8.5 0 -1.5
v 8.5 1 -1.5
v 8.5 4 -1.5
v 8.5 5 -1.5
v 11.5 0 -1.5
v 11.5 1 -1.5
v 11.5 4 -1.5
v 11.5 5 -1.5
v 8.5 1 -2.5
v 8.5 4 -2.5
v 11.5 1 -2.5
v 11.5 4 -2.5
v 8.5 0 1.5
v 11.5 0 1.5
v 9.5 0 0.5
v 11.5 0 0.5
v 9.5 0 -0.5
v 11.5 0 -0.5
v 8.5 0 -1.5
v 11.5 0 -1.5
v 8.5 1 2.5
v 11.5 1 2.5
v 7.5 1 1.5
v 8.5 1 1.5
v 11.5 1 1.5
v -11.5 1 0.5
v -9.5 1 0.5
v -11.5 1 -0.5
v -9.5 1 -0.5
v 7.5 1 -1.5
v 8.5 1 -1.5
v 11.5 1 -1.5
v 8.5 1 -2.5
v 11.5 1 -2.5
v -11.5 2 1.5
v -9.5 2 1.5
v -11.5 2 0.5
v -9.5 2 0.5
v 7.5 2 0.5
v -11.5 2 -0.5
v -9.5 2 -0.5
v 7.5 2 -0.5
v -11.5 2 -1.5
v -9.5 2 -1.5
v 8.5 3 1.5
v 11.5 3 1.5
v 8.5 3 -1.5
v 11.5 3 -1.5
v 8.5 1 1.5
v 11.5 1 1.5
v 9.5 1 0.5
v 11.5 1 0.5
v 9.5 1 -0.5
v 11.5 1 -0.5
v 8.5 1 -1.5
v 11.5 1 -1.5
v -11.5 3 1.5
v -9.5 3 1.5
v -11.5 3 0.5
v -9.5 3 0.5
v 7.5 3 0.5
v -11.5 3 -0.5
v -9.5 3 -0.5
v 7.5 3 -0.5
v -11.5 3 -1.5
v -9.5 3 -1.5
v 8.5 4 2.5
v 11.5 4 2.5
v 7.5 4 1.5
v 8.5 4 1.5
v 11.5 4 1.5
v -11.5 4 0.5
v -9.5 4 0.5
v -11.5 4 -0.5
v -9.5 4 -0.5
v 7.5 4 -1.5
v 8.5 4 -1.5
v 11.5 4 -1.5
v 8.5 4 -2.5
v 11.5 4 -2.5
v 8.5 5 1.5
v 11.5 5 1.5
v 8.5 5 -1.5
v 11.5 5 -1.5

# faces
f 4/1/1 2/1/1 1/1/1
f 5/1/1 2/1/1 4/1/1
f 7/1/1 4/1/1 3/1/1
f 7/1/1 6/1/1 5/1/1
f 7/1/1 5/1/1 4/1/1
f 8/1/1 6/1/1 7/1/1
f 9/1/1 6/1/1 8/1/1
f 10/1/1 6/1/1 9/1/1
f 11/1/1 9/1/1 8/1/1
f 12/1/1 9/1/1 11/1/1
f 15/2/1 14/2/1 13/2/1
f 16/2/1 14/2/1 15/2/1
f 17/2/1 15/2/1 13/2/1
f 18/2/1 14/2/1 16/2/1
f 19/2/1 17/2/1 13/2/1
f 19/2/1 18/2/1 17/2/1
f 20/2/1 14/2/1 18/2/1
f 20/2/1 18/2/1 19/2/1
f 24/2/1 22/2/1 21/2/1
f 25/2/1 22/2/1 24/2/1
f 27/2/1 24/2/1 23/2/1
f 28/2/1 24/2/1 27/2/1
f 29/2/1 26/2/1 25/2/1
f 30/2/1 26/2/1 29/2/1
f 31/2/1 29/2/1 28/2/1
f 32/2/1 29/2/1 31/2/1
f 33/1/2 34/1/2 36/1/2
f 36/1/2 34/1/2 37/1/2
f 35/1/2 36/1/2 39/1/2
f 39/1/2 36/1/2 40/1/2
f 37/1/2 38/1/2 41/1/2
f 41/1/2 38/1/2 42/1/2
f 40/1/2 41/1/2 43/1/2
f 43/1/2 41/1/2 44/1/2
f 45/2/2 46/2/2 47/2/2
f 47/2/2 46/2/2 48/2/2
f 49/2/2 50/2/2 51/2/2
f 51/2/2 50/2/2 52/2/2
f 53/2/2 54/2/2 58/2/2
f 58/2/2 54/2/2 59/2/2
f 55/2/2 56/2/2 60/2/2
f 60/2/2 56/2/2 61/2/2
f 57/2/2 58/2/2 63/2/2
f 61/2/2 62/2/2 64/2/2
f 57/2/2 63/2/2 65/2/2
f 63/2/2 64/2/2 65/2/2
f 65/2/2 64/2/2 66/2/2
f 64/2/2 62/2/2 67/2/2
f 66/2/2 64/2/2 67/2/2
f 67/2/2 62/2/2 68/2/2
f 66/2/2 67/2/2 69/2/2
f 69/2/2 67/2/2 70/2/2
f 73/2/3 72/2/3 71/2/3
f 74/2/3 72/2/3 73/2/3
f 77/1/3 76/1/3 75/1/3
f 78/1/3 76/1/3 77/1/3
f 82/2/3 80/2/3 79/2/3
f 83/2/3 80/2/3 82/2/3
f 85/2/3 82/2/3 81/2/3
f 86/2/3 82/2/3 85/2/3
f 87/2/3 84/2/3 83/2/3
f 88/2/3 84/2/3 87/2/3
f 93/1/3 90/1/3 89/1/3
f 94/1/3 90/1/3 93/1/3
f 95/1/3 92/1/3 91/1/3
f 96/1/3 92/1/3 95/1/3
f 97/2/3 95/2/3 94/2/3
f 98/2/3 95/2/3 97/2/3
f 101/2/3 100/2/3 99/2/3
f 102/2/3 100/2/3 101/2/3
f 105/2/3 104/2/3 103/2/3
f 106/2/3 104/2/3 105/2/3
f 107/2/4 108/2/4 109/2/4
f 109/2/4 108/2/4 110/2/4
f 111/2/4 112/2/4 113/2/4
f 113/2/4 112/2/4 114/2/4
f 115/1/4 116/1/4 119/1/4
f 119/1/4 116/1/4 120/1/4
f 117/1/4 118/1/4 121/1/4
f 121/1/4 118/1/4 122/1/4
f 120/2/4 121/2/4 123/2/4
f 123/2/4 121/2/4 124/2/4
f 125/1/4 126/1/4 127/1/4
f 127/1/4 126/1/4 128/1/4
f 129/2/4 130/2/4 132/2/4
f 132/2/4 130/2/4 133/2/4
f 131/2/4 132/2/4 135/2/4
f 135/2/4 132/2/4 136/2/4
f 133/2/4 134/2/4 137/2/4
f 137/2/4 134/2/4 138/2/4
f 139/2/4 140/2/4 141/2/4
f 141/2/4 140/2/4 142/2/4
f 145/2/5 144/2/5 143/2/5
f 146/2/5 144/2/5 145/2/5
f 147/2/5 145/2/5 143/2/5
f 149/2/5 147/2/5 143/2/5
f 149/2/5 148/2/5 147/2/5
f 150/2/5 148/2/5 149/2/5
f 154/2/5 152/2/5 151/2/5
f 155/2/5 152/2/5 154/2/5
f 158/1/5 157/1/5 156/1/5
f 159/1/5 157/1/5 158/1/5
f 160/2/5 154/2/5 153/2/5
f 161/2/5 154/2/5 160/2/5
f 163/2/5 162/2/5 161/2/5
f 164/2/5 162/2/5 163/2/5
f 167/1/5 166/1/5 165/1/5
f 168/1/5 166/1/5 167/1/5
f 171/2/5 169/2/5 168/2/5
f 172/2/5 169/2/5 171/2/5
f 173/1/5 171/1/5 170/1/5
f 174/1/5 171/1/5 173/1/5
f 177/2/5 176/2/5 175/2/5
f 178/2/5 176/2/5 177/2/5
f 179/2/6 180/2/6 181/2/6
f 181/2/6 180/2/6 182/2/6
f 179/2/6 181/2/6 183/2/6
f 179/2/6 183/2/6 185/2/6
f 183/2/6 184/2/6 185/2/6
f 185/2/6 184/2/6 186/2/6
f 187/1/6 188/1/6 189/1/6
f 189/1/6 188/1/6 190/1/6
f 190/2/6 191/2/6 193/2/6
f 193/2/6 191/2/6 194/2/6
f 192/1/6 193/1/6 195/1/6
f 195/1/6 193/1/6 196/1/6
f 197/2/6 198/2/6 200/2/6
f 200/2/6 198/2/6 201/2/6
f 202/1/6 203/1/6 204/1/6
f 204/1/6 203/1/6 205/1/6
f 199/2/6 200/2/6 206/2/6
f 206/2/6 200/2/6 207/2/6
f 207/2/6 208/2/6 209/2/6
f 209/2/6 208/2/6 210/2/6
f 211/2/6 212/2/6 213/2/6
f 213/2/6 212/2/6 214/2/6
