# MagicaVoxel @ Ephtracy

# group
g mouseBase-0

# material
mtllib mouseBase-0.mtl
usemtl palette

# normals
vn -1 0 0
vn 1 0 0
vn 0 0 1
vn 0 0 -1
vn 0 -1 0
vn 0 1 0

# texcoords
vt 0.986328 0.5
vt 0.994141 0.5

# verts
v -37 4 15
v -37 4 5
v -37 4 -5
v -37 4 -15
v -37 8 15
v -37 8 5
v -37 8 -5
v -37 8 -15
v -36 3 15
v -36 3 10
v -36 3 -9
v -36 3 -14
v -36 4 15
v -36 4 10
v -36 4 -9
v -36 4 -14
v -36 7 5
v -36 7 -5
v -36 8 5
v -36 8 -5
v -35 2 15
v -35 2 10
v -35 2 -9
v -35 2 -14
v -35 3 15
v -35 3 10
v -35 3 -9
v -35 3 -14
v -35 6 5
v -35 6 -5
v -35 7 5
v -35 7 -5
v -35 8 15
v -35 8 -15
v -35 9 15
v -35 9 -15
v -34 1 15
v -34 1 10
v -34 1 -9
v -34 1 -14
v -34 2 15
v -34 2 10
v -34 2 -9
v -34 2 -14
v -34 5 5
v -34 5 -5
v -34 6 5
v -34 6 -5
v -34 9 15
v -34 9 -15
v -34 10 15
v -34 10 -15
v -33 0 15
v -33 0 10
v -33 0 -9
v -33 0 -14
v -33 1 15
v -33 1 10
v -33 1 -9
v -33 1 -14
v -33 4 5
v -33 4 -5
v -33 5 5
v -33 5 -5
v -33 10 15
v -33 10 -15
v -33 11 15
v -33 11 -15
v -32 11 15
v -32 11 -15
v -32 12 15
v -32 12 -15
v -31 12 15
v -31 12 -15
v -31 13 15
v -31 13 -15
v -25 13 8
v -25 13 -8
v -25 15 8
v -25 15 -8
v -15 12 15
v -15 12 12
v -15 12 -12
v -15 12 -15
v -15 13 15
v -15 13 12
v -15 13 -12
v -15 13 -15
v 6 1 15
v 6 1 10
v 6 1 -9
v 6 1 -14
v 6 2 15
v 6 2 10
v 6 2 -9
v 6 2 -14
v 7 2 15
v 7 2 10
v 7 2 -9
v 7 2 -14
v 7 3 15
v 7 3 10
v 7 3 -9
v 7 3 -14
v 8 3 15
v 8 3 10
v 8 3 -9
v 8 3 -14
v 8 4 15
v 8 4 10
v 8 4 -9
v 8 4 -14
v 9 4 15
v 9 4 10
v 9 4 -9
v 9 4 -14
v 9 7 15
v 9 7 10
v 9 7 -9
v 9 7 -14
v -36 4 -14
v -36 4 -15
v -36 7 -14
v -36 7 -15
v -35 4 15
v -35 4 10
v -35 4 -9
v -35 4 -14
v -35 7 15
v -35 7 10
v -35 7 -9
v -35 7 -14
v -34 3 15
v -34 3 10
v -34 3 -9
v -34 3 -14
v -34 4 15
v -34 4 10
v -34 4 -9
v -34 4 -14
v -33 2 15
v -33 2 10
v -33 2 -9
v -33 2 -14
v -33 3 15
v -33 3 10
v -33 3 -9
v -33 3 -14
v -32 1 15
v -32 1 10
v -32 1 -9
v -32 1 -14
v -32 2 15
v -32 2 10
v -32 2 -9
v -32 2 -14
v -24 14 7
v -24 14 -7
v -24 15 7
v -24 15 -7
v -23 13 7
v -23 13 -7
v -23 14 8
v -23 14 7
v -23 14 -7
v -23 14 -8
v -23 15 8
v -23 15 7
v -23 15 -7
v -23 15 -8
v -20 12 15
v -20 12 12
v -20 12 -12
v -20 12 -15
v -20 13 15
v -20 13 12
v -20 13 -12
v -20 13 -15
v -19 13 8
v -19 13 7
v -19 13 -7
v -19 13 -8
v -19 14 8
v -19 14 7
v -19 14 -7
v -19 14 -8
v 6 12 15
v 6 12 -15
v 6 13 15
v 6 13 -15
v 7 0 15
v 7 0 10
v 7 0 -9
v 7 0 -14
v 7 1 15
v 7 1 10
v 7 1 -9
v 7 1 -14
v 7 11 15
v 7 11 -15
v 7 12 15
v 7 12 -15
v 8 1 15
v 8 1 10
v 8 1 -9
v 8 1 -14
v 8 2 15
v 8 2 10
v 8 2 -9
v 8 2 -14
v 8 10 15
v 8 10 -15
v 8 11 15
v 8 11 -15
v 9 2 15
v 9 2 10
v 9 2 -9
v 9 2 -14
v 9 3 15
v 9 3 10
v 9 3 -9
v 9 3 -14
v 9 9 15
v 9 9 -15
v 9 10 15
v 9 10 -15
v 10 3 15
v 10 3 10
v 10 3 -9
v 10 3 -14
v 10 4 10
v 10 4 -9
v 10 7 15
v 10 7 10
v 10 7 -9
v 10 7 -14
v 10 7 -15
v 10 9 15
v 10 9 -15
v -37 4 15
v -37 8 15
v -36 3 15
v -36 4 15
v -36 7 15
v -35 2 15
v -35 3 15
v -35 4 15
v -35 7 15
v -35 8 15
v -35 9 15
v -34 1 15
v -34 2 15
v -34 3 15
v -34 4 15
v -34 9 15
v -34 10 15
v -33 0 15
v -33 1 15
v -33 2 15
v -33 3 15
v -33 10 15
v -33 11 15
v -32 1 15
v -32 2 15
v -32 11 15
v -32 12 15
v -31 12 15
v -31 13 15
v -20 12 15
v -20 13 15
v -15 12 15
v -15 13 15
v 6 1 15
v 6 2 15
v 6 12 15
v 6 13 15
v 7 0 15
v 7 1 15
v 7 2 15
v 7 3 15
v 7 11 15
v 7 12 15
v 8 1 15
v 8 2 15
v 8 3 15
v 8 4 15
v 8 10 15
v 8 11 15
v 9 2 15
v 9 3 15
v 9 4 15
v 9 7 15
v 9 9 15
v 9 10 15
v 10 3 15
v 10 7 15
v 10 9 15
v -20 12 12
v -20 13 12
v -15 12 12
v -15 13 12
v -35 4 10
v -35 7 10
v -34 4 10
v 8 4 10
v 9 4 10
v 9 7 10
v -25 13 8
v -25 15 8
v -23 14 8
v -23 15 8
v -19 13 8
v -19 14 8
v -37 4 -5
v -37 8 -5
v -36 7 -5
v -36 8 -5
v -35 6 -5
v -35 7 -5
v -34 5 -5
v -34 6 -5
v -33 4 -5
v -33 5 -5
v -24 14 -7
v -24 15 -7
v -23 13 -7
v -23 14 -7
v -23 15 -7
v -19 13 -7
v -19 14 -7
v -36 3 -9
v -36 4 -9
v -35 2 -9
v -35 3 -9
v -34 1 -9
v -34 2 -9
v -34 3 -9
v -34 4 -9
v -33 0 -9
v -33 1 -9
v -33 2 -9
v -33 3 -9
v -32 1 -9
v -32 2 -9
v 6 1 -9
v 6 2 -9
v 7 0 -9
v 7 1 -9
v 7 2 -9
v 7 3 -9
v 8 1 -9
v 8 2 -9
v 8 3 -9
v 8 4 -9
v 9 2 -9
v 9 3 -9
v 10 3 -9
v 10 4 -9
v -36 3 10
v -36 4 10
v -35 2 10
v -35 3 10
v -34 1 10
v -34 2 10
v -34 3 10
v -34 4 10
v -33 0 10
v -33 1 10
v -33 2 10
v -33 3 10
v -32 1 10
v -32 2 10
v 6 1 10
v 6 2 10
v 7 0 10
v 7 1 10
v 7 2 10
v 7 3 10
v 8 1 10
v 8 2 10
v 8 3 10
v 8 4 10
v 9 2 10
v 9 3 10
v 10 3 10
v 10 4 10
v -24 14 7
v -24 15 7
v -23 13 7
v -23 14 7
v -23 15 7
v -19 13 7
v -19 14 7
v -37 4 5
v -37 8 5
v -36 7 5
v -36 8 5
v -35 6 5
v -35 7 5
v -34 5 5
v -34 6 5
v -33 4 5
v -33 5 5
v -25 13 -8
v -25 15 -8
v -23 14 -8
v -23 15 -8
v -19 13 -8
v -19 14 -8
v -35 4 -9
v -35 7 -9
v -34 4 -9
v 8 4 -9
v 9 4 -9
v 9 7 -9
v -20 12 -12
v -20 13 -12
v -15 12 -12
v -15 13 -12
v -36 3 -14
v -36 4 -14
v -36 7 -14
v -35 2 -14
v -35 3 -14
v -35 4 -14
v -35 7 -14
v -34 1 -14
v -34 2 -14
v -34 3 -14
v -34 4 -14
v -33 0 -14
v -33 1 -14
v -33 2 -14
v -33 3 -14
v -32 1 -14
v -32 2 -14
v 6 1 -14
v 6 2 -14
v 7 0 -14
v 7 1 -14
v 7 2 -14
v 7 3 -14
v 8 1 -14
v 8 2 -14
v 8 3 -14
v 8 4 -14
v 9 2 -14
v 9 3 -14
v 9 4 -14
v 9 7 -14
v 10 3 -14
v 10 7 -14
v -37 4 -15
v -37 8 -15
v -36 4 -15
v -36 7 -15
v -35 8 -15
v -35 9 -15
v -34 9 -15
v -34 10 -15
v -33 10 -15
v -33 11 -15
v -32 11 -15
v -32 12 -15
v -31 12 -15
v -31 13 -15
v -20 12 -15
v -20 13 -15
v -15 12 -15
v -15 13 -15
v 6 12 -15
v 6 13 -15
v 7 11 -15
v 7 12 -15
v 8 10 -15
v 8 11 -15
v 9 9 -15
v 9 10 -15
v 10 7 -15
v 10 9 -15
v -33 0 15
v 7 0 15
v -33 0 10
v 7 0 10
v -33 0 -9
v 7 0 -9
v -33 0 -14
v 7 0 -14
v -34 1 15
v -33 1 15
v 7 1 15
v 8 1 15
v -34 1 10
v -33 1 10
v 7 1 10
v 8 1 10
v -34 1 -9
v -33 1 -9
v 7 1 -9
v 8 1 -9
v -34 1 -14
v -33 1 -14
v 7 1 -14
v 8 1 -14
v -35 2 15
v -34 2 15
v 8 2 15
v 9 2 15
v -35 2 10
v -34 2 10
v 8 2 10
v 9 2 10
v -35 2 -9
v -34 2 -9
v 8 2 -9
v 9 2 -9
v -35 2 -14
v -34 2 -14
v 8 2 -14
v 9 2 -14
v -36 3 15
v -35 3 15
v 9 3 15
v 10 3 15
v -36 3 10
v -35 3 10
v 9 3 10
v 10 3 10
v -36 3 -9
v -35 3 -9
v 9 3 -9
v 10 3 -9
v -36 3 -14
v -35 3 -14
v 9 3 -14
v 10 3 -14
v -37 4 15
v -36 4 15
v -36 4 10
v -34 4 10
v 8 4 10
v 10 4 10
v -37 4 5
v -33 4 5
v -37 4 -5
v -33 4 -5
v -36 4 -9
v -34 4 -9
v 8 4 -9
v 10 4 -9
v -36 4 -14
v -37 4 -15
v -36 4 -15
v -34 5 5
v -33 5 5
v -34 5 -5
v -33 5 -5
v -35 6 5
v -34 6 5
v -35 6 -5
v -34 6 -5
v -35 7 15
v 9 7 15
v -35 7 10
v 9 7 10
v -36 7 5
v -35 7 5
v -36 7 -5
v -35 7 -5
v -35 7 -9
v 9 7 -9
v -36 7 -14
v -35 7 -14
v 9 7 -14
v 10 7 -14
v -36 7 -15
v 10 7 -15
v -32 1 15
v 6 1 15
v -32 1 10
v 6 1 10
v -32 1 -9
v 6 1 -9
v -32 1 -14
v 6 1 -14
v -33 2 15
v -32 2 15
v 6 2 15
v 7 2 15
v -33 2 10
v -32 2 10
v 6 2 10
v 7 2 10
v -33 2 -9
v -32 2 -9
v 6 2 -9
v 7 2 -9
v -33 2 -14
v -32 2 -14
v 6 2 -14
v 7 2 -14
v -34 3 15
v -33 3 15
v 7 3 15
v 8 3 15
v -34 3 10
v -33 3 10
v 7 3 10
v 8 3 10
v -34 3 -9
v -33 3 -9
v 7 3 -9
v 8 3 -9
v -34 3 -14
v -33 3 -14
v 7 3 -14
v 8 3 -14
v -35 4 15
v -34 4 15
v 8 4 15
v 9 4 15
v -35 4 10
v -34 4 10
v 8 4 10
v 9 4 10
v -35 4 -9
v -34 4 -9
v 8 4 -9
v 9 4 -9
v -35 4 -14
v -34 4 -14
v 8 4 -14
v 9 4 -14
v -37 8 15
v -35 8 15
v -37 8 5
v -36 8 5
v -37 8 -5
v -36 8 -5
v -37 8 -15
v -35 8 -15
v -35 9 15
v -34 9 15
v 9 9 15
v 10 9 15
v -35 9 -15
v -34 9 -15
v 9 9 -15
v 10 9 -15
v -34 10 15
v -33 10 15
v 8 10 15
v 9 10 15
v -34 10 -15
v -33 10 -15
v 8 10 -15
v 9 10 -15
v -33 11 15
v -32 11 15
v 7 11 15
v 8 11 15
v -33 11 -15
v -32 11 -15
v 7 11 -15
v 8 11 -15
v -32 12 15
v -31 12 15
v -20 12 15
v -15 12 15
v 6 12 15
v 7 12 15
v -20 12 12
v -15 12 12
v -20 12 -12
v -15 12 -12
v -32 12 -15
v -31 12 -15
v -20 12 -15
v -15 12 -15
v 6 12 -15
v 7 12 -15
v -31 13 15
v -20 13 15
v -15 13 15
v 6 13 15
v -20 13 12
v -15 13 12
v -25 13 8
v -19 13 8
v -23 13 7
v -19 13 7
v -23 13 -7
v -19 13 -7
v -25 13 -8
v -19 13 -8
v -20 13 -12
v -15 13 -12
v -31 13 -15
v -20 13 -15
v -15 13 -15
v 6 13 -15
v -23 14 8
v -19 14 8
v -24 14 7
v -23 14 7
v -19 14 7
v -24 14 -7
v -23 14 -7
v -19 14 -7
v -23 14 -8
v -19 14 -8
v -25 15 8
v -23 15 8
v -24 15 7
v -23 15 7
v -24 15 -7
v -23 15 -7
v -25 15 -8
v -23 15 -8

# faces
f 5/1/1 2/1/1 1/1/1
f 6/1/1 2/1/1 5/1/1
f 7/1/1 4/1/1 3/1/1
f 8/1/1 4/1/1 7/1/1
f 13/2/1 10/2/1 9/2/1
f 14/2/1 10/2/1 13/2/1
f 15/2/1 12/2/1 11/2/1
f 16/2/1 12/2/1 15/2/1
f 19/1/1 18/1/1 17/1/1
f 20/1/1 18/1/1 19/1/1
f 25/2/1 22/2/1 21/2/1
f 26/2/1 22/2/1 25/2/1
f 27/2/1 24/2/1 23/2/1
f 28/2/1 24/2/1 27/2/1
f 31/1/1 30/1/1 29/1/1
f 32/1/1 30/1/1 31/1/1
f 35/1/1 34/1/1 33/1/1
f 36/1/1 34/1/1 35/1/1
f 41/2/1 38/2/1 37/2/1
f 42/2/1 38/2/1 41/2/1
f 43/2/1 40/2/1 39/2/1
f 44/2/1 40/2/1 43/2/1
f 47/1/1 46/1/1 45/1/1
f 48/1/1 46/1/1 47/1/1
f 51/1/1 50/1/1 49/1/1
f 52/1/1 50/1/1 51/1/1
f 57/2/1 54/2/1 53/2/1
f 58/2/1 54/2/1 57/2/1
f 59/2/1 56/2/1 55/2/1
f 60/2/1 56/2/1 59/2/1
f 63/1/1 62/1/1 61/1/1
f 64/1/1 62/1/1 63/1/1
f 67/1/1 66/1/1 65/1/1
f 68/1/1 66/1/1 67/1/1
f 71/1/1 70/1/1 69/1/1
f 72/1/1 70/1/1 71/1/1
f 75/1/1 74/1/1 73/1/1
f 76/1/1 74/1/1 75/1/1
f 79/2/1 78/2/1 77/2/1
f 80/2/1 78/2/1 79/2/1
f 85/1/1 82/1/1 81/1/1
f 86/1/1 82/1/1 85/1/1
f 87/1/1 84/1/1 83/1/1
f 88/1/1 84/1/1 87/1/1
f 93/2/1 90/2/1 89/2/1
f 94/2/1 90/2/1 93/2/1
f 95/2/1 92/2/1 91/2/1
f 96/2/1 92/2/1 95/2/1
f 101/2/1 98/2/1 97/2/1
f 102/2/1 98/2/1 101/2/1
f 103/2/1 100/2/1 99/2/1
f 104/2/1 100/2/1 103/2/1
f 109/2/1 106/2/1 105/2/1
f 110/2/1 106/2/1 109/2/1
f 111/2/1 108/2/1 107/2/1
f 112/2/1 108/2/1 111/2/1
f 117/2/1 114/2/1 113/2/1
f 118/2/1 114/2/1 117/2/1
f 119/2/1 116/2/1 115/2/1
f 120/2/1 116/2/1 119/2/1
f 121/1/2 122/1/2 123/1/2
f 123/1/2 122/1/2 124/1/2
f 125/2/2 126/2/2 129/2/2
f 129/2/2 126/2/2 130/2/2
f 127/2/2 128/2/2 131/2/2
f 131/2/2 128/2/2 132/2/2
f 133/2/2 134/2/2 137/2/2
f 137/2/2 134/2/2 138/2/2
f 135/2/2 136/2/2 139/2/2
f 139/2/2 136/2/2 140/2/2
f 141/2/2 142/2/2 145/2/2
f 145/2/2 142/2/2 146/2/2
f 143/2/2 144/2/2 147/2/2
f 147/2/2 144/2/2 148/2/2
f 149/2/2 150/2/2 153/2/2
f 153/2/2 150/2/2 154/2/2
f 151/2/2 152/2/2 155/2/2
f 155/2/2 152/2/2 156/2/2
f 157/2/2 158/2/2 159/2/2
f 159/2/2 158/2/2 160/2/2
f 161/2/2 162/2/2 164/2/2
f 164/2/2 162/2/2 165/2/2
f 163/2/2 164/2/2 167/2/2
f 167/2/2 164/2/2 168/2/2
f 165/2/2 166/2/2 169/2/2
f 169/2/2 166/2/2 170/2/2
f 171/1/2 172/1/2 175/1/2
f 175/1/2 172/1/2 176/1/2
f 173/1/2 174/1/2 177/1/2
f 177/1/2 174/1/2 178/1/2
f 179/2/2 180/2/2 183/2/2
f 183/2/2 180/2/2 184/2/2
f 181/2/2 182/2/2 185/2/2
f 185/2/2 182/2/2 186/2/2
f 187/1/2 188/1/2 189/1/2
f 189/1/2 188/1/2 190/1/2
f 191/2/2 192/2/2 195/2/2
f 195/2/2 192/2/2 196/2/2
f 193/2/2 194/2/2 197/2/2
f 197/2/2 194/2/2 198/2/2
f 199/1/2 200/1/2 201/1/2
f 201/1/2 200/1/2 202/1/2
f 203/2/2 204/2/2 207/2/2
f 207/2/2 204/2/2 208/2/2
f 205/2/2 206/2/2 209/2/2
f 209/2/2 206/2/2 210/2/2
f 211/1/2 212/1/2 213/1/2
f 213/1/2 212/1/2 214/1/2
f 215/2/2 216/2/2 219/2/2
f 219/2/2 216/2/2 220/2/2
f 217/2/2 218/2/2 221/2/2
f 221/2/2 218/2/2 222/2/2
f 223/1/2 224/1/2 225/1/2
f 225/1/2 224/1/2 226/1/2
f 227/2/2 228/2/2 231/2/2
f 229/2/2 230/2/2 232/2/2
f 227/2/2 231/2/2 233/2/2
f 231/1/2 232/1/2 234/1/2
f 233/2/2 231/2/2 234/2/2
f 232/2/2 230/2/2 235/2/2
f 234/1/2 232/1/2 235/1/2
f 235/2/2 230/2/2 236/2/2
f 233/1/2 234/1/2 238/1/2
f 236/1/2 237/1/2 238/1/2
f 235/1/2 236/1/2 238/1/2
f 234/1/2 235/1/2 238/1/2
f 238/1/2 237/1/2 239/1/2
f 243/1/3 241/1/3 240/1/3
f 244/1/3 241/1/3 243/1/3
f 246/2/3 243/2/3 242/2/3
f 246/2/3 244/2/3 243/2/3
f 247/2/3 244/2/3 246/2/3
f 248/1/3 241/1/3 244/1/3
f 248/2/3 244/2/3 247/2/3
f 249/1/3 241/1/3 248/1/3
f 252/2/3 247/2/3 246/2/3
f 252/2/3 246/2/3 245/2/3
f 253/2/3 247/2/3 252/2/3
f 254/2/3 247/2/3 253/2/3
f 255/1/3 249/1/3 248/1/3
f 255/1/3 250/1/3 249/1/3
f 258/2/3 253/2/3 252/2/3
f 258/2/3 252/2/3 251/2/3
f 259/2/3 253/2/3 258/2/3
f 260/2/3 253/2/3 259/2/3
f 261/1/3 256/1/3 255/1/3
f 263/2/3 258/2/3 257/2/3
f 263/2/3 259/2/3 258/2/3
f 264/2/3 259/2/3 263/2/3
f 265/1/3 262/1/3 261/1/3
f 267/1/3 266/1/3 265/1/3
f 269/1/3 267/1/3 265/1/3
f 269/1/3 268/1/3 267/1/3
f 270/1/3 268/1/3 269/1/3
f 271/1/3 269/1/3 265/1/3
f 273/2/3 263/2/3 257/2/3
f 275/1/3 272/1/3 271/1/3
f 275/1/3 271/1/3 265/1/3
f 276/1/3 272/1/3 275/1/3
f 277/2/3 274/2/3 273/2/3
f 277/2/3 273/2/3 257/2/3
f 278/2/3 274/2/3 277/2/3
f 279/2/3 274/2/3 278/2/3
f 281/1/3 265/1/3 261/1/3
f 281/1/3 275/1/3 265/1/3
f 282/1/3 275/1/3 281/1/3
f 283/2/3 280/2/3 279/2/3
f 283/2/3 279/2/3 278/2/3
f 284/2/3 280/2/3 283/2/3
f 285/2/3 280/2/3 284/2/3
f 287/1/3 261/1/3 255/1/3
f 287/1/3 281/1/3 261/1/3
f 288/1/3 281/1/3 287/1/3
f 289/2/3 286/2/3 285/2/3
f 289/2/3 285/2/3 284/2/3
f 290/2/3 286/2/3 289/2/3
f 291/2/3 286/2/3 290/2/3
f 292/1/3 255/1/3 248/1/3
f 292/1/3 287/1/3 255/1/3
f 293/1/3 287/1/3 292/1/3
f 294/1/3 287/1/3 293/1/3
f 295/2/3 291/2/3 290/2/3
f 295/2/3 292/2/3 291/2/3
f 296/1/3 293/1/3 292/1/3
f 296/2/3 292/2/3 295/2/3
f 297/1/3 293/1/3 296/1/3
f 300/1/3 299/1/3 298/1/3
f 301/1/3 299/1/3 300/1/3
f 304/1/3 303/1/3 302/1/3
f 305/1/3 303/1/3 304/1/3
f 306/1/3 303/1/3 305/1/3
f 307/1/3 303/1/3 306/1/3
f 310/2/3 309/2/3 308/2/3
f 311/2/3 309/2/3 310/2/3
f 312/2/3 310/2/3 308/2/3
f 313/2/3 310/2/3 312/2/3
f 316/1/3 315/1/3 314/1/3
f 317/1/3 315/1/3 316/1/3
f 318/1/3 316/1/3 314/1/3
f 319/1/3 316/1/3 318/1/3
f 320/1/3 318/1/3 314/1/3
f 321/1/3 318/1/3 320/1/3
f 322/1/3 320/1/3 314/1/3
f 323/1/3 320/1/3 322/1/3
f 327/2/3 325/2/3 324/2/3
f 328/2/3 325/2/3 327/2/3
f 329/2/3 327/2/3 326/2/3
f 330/2/3 327/2/3 329/2/3
f 334/2/3 332/2/3 331/2/3
f 336/2/3 334/2/3 333/2/3
f 337/2/3 332/2/3 334/2/3
f 337/2/3 334/2/3 336/2/3
f 338/2/3 332/2/3 337/2/3
f 340/2/3 336/2/3 335/2/3
f 340/2/3 337/2/3 336/2/3
f 341/2/3 337/2/3 340/2/3
f 342/2/3 337/2/3 341/2/3
f 343/2/3 340/2/3 339/2/3
f 343/2/3 341/2/3 340/2/3
f 344/2/3 341/2/3 343/2/3
f 345/2/3 343/2/3 339/2/3
f 347/2/3 345/2/3 339/2/3
f 347/2/3 346/2/3 345/2/3
f 348/2/3 346/2/3 347/2/3
f 349/2/3 346/2/3 348/2/3
f 351/2/3 349/2/3 348/2/3
f 351/2/3 350/2/3 349/2/3
f 352/2/3 350/2/3 351/2/3
f 353/2/3 350/2/3 352/2/3
f 355/2/3 353/2/3 352/2/3
f 355/2/3 354/2/3 353/2/3
f 356/2/3 354/2/3 355/2/3
f 357/2/3 354/2/3 356/2/3
f 358/2/3 354/2/3 357/2/3
f 359/2/4 360/2/4 362/2/4
f 361/2/4 362/2/4 364/2/4
f 362/2/4 360/2/4 365/2/4
f 364/2/4 362/2/4 365/2/4
f 365/2/4 360/2/4 366/2/4
f 363/2/4 364/2/4 368/2/4
f 364/2/4 365/2/4 368/2/4
f 368/2/4 365/2/4 369/2/4
f 369/2/4 365/2/4 370/2/4
f 367/2/4 368/2/4 371/2/4
f 368/2/4 369/2/4 371/2/4
f 371/2/4 369/2/4 372/2/4
f 367/2/4 371/2/4 373/2/4
f 367/2/4 373/2/4 375/2/4
f 373/2/4 374/2/4 375/2/4
f 375/2/4 374/2/4 376/2/4
f 376/2/4 374/2/4 377/2/4
f 376/2/4 377/2/4 379/2/4
f 377/2/4 378/2/4 379/2/4
f 379/2/4 378/2/4 380/2/4
f 380/2/4 378/2/4 381/2/4
f 380/2/4 381/2/4 383/2/4
f 381/2/4 382/2/4 383/2/4
f 383/2/4 382/2/4 384/2/4
f 384/2/4 382/2/4 385/2/4
f 385/2/4 382/2/4 386/2/4
f 387/2/4 388/2/4 390/2/4
f 390/2/4 388/2/4 391/2/4
f 389/2/4 390/2/4 392/2/4
f 392/2/4 390/2/4 393/2/4
f 394/1/4 395/1/4 396/1/4
f 396/1/4 395/1/4 397/1/4
f 394/1/4 396/1/4 398/1/4
f 398/1/4 396/1/4 399/1/4
f 394/1/4 398/1/4 400/1/4
f 400/1/4 398/1/4 401/1/4
f 394/1/4 400/1/4 402/1/4
f 402/1/4 400/1/4 403/1/4
f 404/2/4 405/2/4 406/2/4
f 406/2/4 405/2/4 407/2/4
f 404/2/4 406/2/4 408/2/4
f 408/2/4 406/2/4 409/2/4
f 410/1/4 411/1/4 412/1/4
f 412/1/4 411/1/4 413/1/4
f 413/1/4 411/1/4 414/1/4
f 414/1/4 411/1/4 415/1/4
f 416/1/4 417/1/4 418/1/4
f 418/1/4 417/1/4 419/1/4
f 420/2/4 421/2/4 424/2/4
f 421/2/4 422/2/4 424/2/4
f 424/2/4 422/2/4 425/2/4
f 425/2/4 422/2/4 426/2/4
f 423/2/4 424/2/4 428/2/4
f 424/2/4 425/2/4 428/2/4
f 428/2/4 425/2/4 429/2/4
f 429/2/4 425/2/4 430/2/4
f 427/2/4 428/2/4 432/2/4
f 428/2/4 429/2/4 432/2/4
f 432/2/4 429/2/4 433/2/4
f 433/2/4 429/2/4 434/2/4
f 431/2/4 432/2/4 435/2/4
f 432/2/4 433/2/4 435/2/4
f 435/2/4 433/2/4 436/2/4
f 431/2/4 435/2/4 437/2/4
f 431/2/4 437/2/4 439/2/4
f 437/2/4 438/2/4 439/2/4
f 439/2/4 438/2/4 440/2/4
f 440/2/4 438/2/4 441/2/4
f 440/2/4 441/2/4 443/2/4
f 441/2/4 442/2/4 443/2/4
f 443/2/4 442/2/4 444/2/4
f 444/2/4 442/2/4 445/2/4
f 444/2/4 445/2/4 447/2/4
f 445/2/4 446/2/4 447/2/4
f 447/2/4 446/2/4 448/2/4
f 448/2/4 446/2/4 449/2/4
f 448/2/4 449/2/4 451/2/4
f 449/2/4 450/2/4 451/2/4
f 451/2/4 450/2/4 452/2/4
f 453/1/4 454/1/4 455/1/4
f 455/1/4 454/1/4 456/1/4
f 456/1/4 454/1/4 457/1/4
f 457/1/4 458/1/4 459/1/4
f 459/1/4 460/1/4 461/1/4
f 461/1/4 462/1/4 463/1/4
f 463/1/4 464/1/4 465/1/4
f 463/1/4 465/1/4 467/1/4
f 465/1/4 466/1/4 467/1/4
f 467/1/4 466/1/4 468/1/4
f 463/1/4 467/1/4 469/1/4
f 463/1/4 469/1/4 471/1/4
f 469/1/4 470/1/4 471/1/4
f 471/1/4 470/1/4 472/1/4
f 461/1/4 463/1/4 473/1/4
f 463/1/4 471/1/4 473/1/4
f 473/1/4 471/1/4 474/1/4
f 459/1/4 461/1/4 475/1/4
f 461/1/4 473/1/4 475/1/4
f 475/1/4 473/1/4 476/1/4
f 457/1/4 459/1/4 477/1/4
f 459/1/4 475/1/4 477/1/4
f 477/1/4 475/1/4 478/1/4
f 456/1/4 457/1/4 479/1/4
f 457/1/4 477/1/4 479/1/4
f 479/1/4 477/1/4 480/1/4
f 483/2/5 482/2/5 481/2/5
f 484/2/5 482/2/5 483/2/5
f 487/2/5 486/2/5 485/2/5
f 488/2/5 486/2/5 487/2/5
f 493/2/5 490/2/5 489/2/5
f 494/2/5 490/2/5 493/2/5
f 495/2/5 492/2/5 491/2/5
f 496/2/5 492/2/5 495/2/5
f 501/2/5 498/2/5 497/2/5
f 502/2/5 498/2/5 501/2/5
f 503/2/5 500/2/5 499/2/5
f 504/2/5 500/2/5 503/2/5
f 509/2/5 506/2/5 505/2/5
f 510/2/5 506/2/5 509/2/5
f 511/2/5 508/2/5 507/2/5
f 512/2/5 508/2/5 511/2/5
f 517/2/5 514/2/5 513/2/5
f 518/2/5 514/2/5 517/2/5
f 519/2/5 516/2/5 515/2/5
f 520/2/5 516/2/5 519/2/5
f 525/2/5 522/2/5 521/2/5
f 526/2/5 522/2/5 525/2/5
f 527/2/5 524/2/5 523/2/5
f 528/2/5 524/2/5 527/2/5
f 533/2/5 530/2/5 529/2/5
f 534/2/5 530/2/5 533/2/5
f 535/2/5 532/2/5 531/2/5
f 536/2/5 532/2/5 535/2/5
f 539/1/5 538/1/5 537/1/5
f 543/1/5 539/1/5 537/1/5
f 543/1/5 542/1/5 541/1/5
f 543/1/5 541/1/5 540/1/5
f 543/1/5 540/1/5 539/1/5
f 544/1/5 542/1/5 543/1/5
f 546/1/5 542/1/5 544/1/5
f 547/1/5 546/1/5 545/1/5
f 548/1/5 546/1/5 547/1/5
f 549/1/5 542/1/5 546/1/5
f 549/1/5 546/1/5 548/1/5
f 550/1/5 542/1/5 549/1/5
f 551/1/5 547/1/5 545/1/5
f 552/1/5 551/1/5 545/1/5
f 553/1/5 551/1/5 552/1/5
f 556/1/5 555/1/5 554/1/5
f 557/1/5 555/1/5 556/1/5
f 560/1/5 559/1/5 558/1/5
f 561/1/5 559/1/5 560/1/5
f 564/1/5 563/1/5 562/1/5
f 565/1/5 563/1/5 564/1/5
f 568/1/5 567/1/5 566/1/5
f 569/1/5 567/1/5 568/1/5
f 573/1/5 571/1/5 570/1/5
f 574/1/5 571/1/5 573/1/5
f 576/1/5 574/1/5 573/1/5
f 576/1/5 575/1/5 574/1/5
f 576/1/5 573/1/5 572/1/5
f 577/1/5 575/1/5 576/1/5
f 578/2/6 579/2/6 580/2/6
f 580/2/6 579/2/6 581/2/6
f 582/2/6 583/2/6 584/2/6
f 584/2/6 583/2/6 585/2/6
f 586/2/6 587/2/6 590/2/6
f 590/2/6 587/2/6 591/2/6
f 588/2/6 589/2/6 592/2/6
f 592/2/6 589/2/6 593/2/6
f 594/2/6 595/2/6 598/2/6
f 598/2/6 595/2/6 599/2/6
f 596/2/6 597/2/6 600/2/6
f 600/2/6 597/2/6 601/2/6
f 602/2/6 603/2/6 606/2/6
f 606/2/6 603/2/6 607/2/6
f 604/2/6 605/2/6 608/2/6
f 608/2/6 605/2/6 609/2/6
f 610/2/6 611/2/6 614/2/6
f 614/2/6 611/2/6 615/2/6
f 612/2/6 613/2/6 616/2/6
f 616/2/6 613/2/6 617/2/6
f 618/2/6 619/2/6 622/2/6
f 622/2/6 619/2/6 623/2/6
f 620/2/6 621/2/6 624/2/6
f 624/2/6 621/2/6 625/2/6
f 626/2/6 627/2/6 630/2/6
f 630/2/6 627/2/6 631/2/6
f 628/2/6 629/2/6 632/2/6
f 632/2/6 629/2/6 633/2/6
f 634/1/6 635/1/6 636/1/6
f 636/1/6 635/1/6 637/1/6
f 637/1/6 635/1/6 639/1/6
f 638/1/6 639/1/6 640/1/6
f 639/1/6 635/1/6 641/1/6
f 640/1/6 639/1/6 641/1/6
f 642/1/6 643/1/6 646/1/6
f 646/1/6 643/1/6 647/1/6
f 644/1/6 645/1/6 648/1/6
f 648/1/6 645/1/6 649/1/6
f 650/1/6 651/1/6 654/1/6
f 654/1/6 651/1/6 655/1/6
f 652/1/6 653/1/6 656/1/6
f 656/1/6 653/1/6 657/1/6
f 658/1/6 659/1/6 662/1/6
f 662/1/6 659/1/6 663/1/6
f 660/1/6 661/1/6 664/1/6
f 664/1/6 661/1/6 665/1/6
f 668/1/6 669/1/6 672/1/6
f 672/1/6 669/1/6 673/1/6
f 666/1/6 667/1/6 676/1/6
f 676/1/6 667/1/6 677/1/6
f 674/1/6 675/1/6 678/1/6
f 678/1/6 675/1/6 679/1/6
f 670/1/6 671/1/6 680/1/6
f 680/1/6 671/1/6 681/1/6
f 682/1/6 683/1/6 686/1/6
f 684/1/6 685/1/6 687/1/6
f 682/1/6 686/1/6 688/1/6
f 686/1/6 687/1/6 688/1/6
f 688/1/6 687/1/6 689/1/6
f 689/1/6 687/1/6 691/1/6
f 690/1/6 691/1/6 692/1/6
f 691/1/6 687/1/6 693/1/6
f 692/1/6 691/1/6 693/1/6
f 682/1/6 688/1/6 694/1/6
f 693/1/6 687/1/6 695/1/6
f 694/1/6 695/1/6 696/1/6
f 687/1/6 685/1/6 697/1/6
f 696/1/6 695/1/6 697/1/6
f 695/1/6 687/1/6 697/1/6
f 694/1/6 696/1/6 698/1/6
f 682/1/6 694/1/6 698/1/6
f 698/1/6 696/1/6 699/1/6
f 697/1/6 685/1/6 700/1/6
f 700/1/6 685/1/6 701/1/6
f 702/2/6 703/2/6 705/2/6
f 705/2/6 703/2/6 706/2/6
f 704/2/6 705/2/6 707/2/6
f 707/2/6 705/2/6 708/2/6
f 708/2/6 709/2/6 710/2/6
f 710/2/6 709/2/6 711/2/6
f 712/2/6 713/2/6 714/2/6
f 714/2/6 713/2/6 715/2/6
f 712/2/6 714/2/6 716/2/6
f 712/2/6 716/2/6 718/2/6
f 716/2/6 717/2/6 718/2/6
f 718/2/6 717/2/6 719/2/6
