# MagicaVoxel @ Ephtracy

# group
g untitled-1

# material
mtllib untitled-1.mtl
usemtl palette

# normals
vn -1 0 0
vn 1 0 0
vn 0 0 1
vn 0 0 -1
vn 0 -1 0
vn 0 1 0

# texcoords
vt 0.0214844 0.5
vt 0.990234 0.5
vt 0.994141 0.5

# verts
v -16 19 13
v -16 19 -14
v -16 20 13
v -16 20 -14
v -15 0 12
v -15 0 -13
v -15 19 12
v -15 19 -13
v -14 20 11
v -14 20 -12
v -14 21 11
v -14 21 -12
v -14 22 11
v -14 22 -12
v -9 25 11
v -9 25 4
v -9 30 11
v -9 30 4
v -7 22 8
v -7 22 7
v -7 25 8
v -7 25 7
v 9 22 11
v 9 22 10
v 9 22 9
v 9 22 8
v 9 22 7
v 9 22 6
v 9 22 5
v 9 22 4
v 9 22 -5
v 9 22 -6
v 9 22 -7
v 9 22 -8
v 9 22 -9
v 9 22 -10
v 9 22 -11
v 9 22 -12
v 9 23 11
v 9 23 10
v 9 23 9
v 9 23 8
v 9 23 7
v 9 23 6
v 9 23 5
v 9 23 4
v 9 23 -5
v 9 23 -6
v 9 23 -7
v 9 23 -8
v 9 23 -9
v 9 23 -10
v 9 23 -11
v 9 23 -12
v -6 22 8
v -6 22 7
v -6 25 8
v -6 25 7
v -5 25 11
v -5 25 4
v -5 26 10
v -5 26 5
v -5 29 10
v -5 29 5
v -5 30 11
v -5 30 4
v 1 20 4
v 1 20 -5
v 1 21 4
v 1 21 -5
v 1 22 4
v 1 22 -5
v 2 9 3
v 2 9 -4
v 2 19 3
v 2 19 -4
v 3 19 2
v 3 19 -3
v 3 20 2
v 3 20 -3
v 10 20 11
v 10 20 4
v 10 20 -5
v 10 20 -12
v 10 21 11
v 10 21 4
v 10 21 -5
v 10 21 -12
v 10 22 10
v 10 22 9
v 10 22 8
v 10 22 7
v 10 22 6
v 10 22 5
v 10 22 -6
v 10 22 -7
v 10 22 -8
v 10 22 -9
v 10 22 -10
v 10 22 -11
v 10 23 11
v 10 23 10
v 10 23 9
v 10 23 8
v 10 23 7
v 10 23 6
v 10 23 5
v 10 23 4
v 10 23 -5
v 10 23 -6
v 10 23 -7
v 10 23 -8
v 10 23 -9
v 10 23 -10
v 10 23 -11
v 10 23 -12
v 11 0 11
v 11 0 -12
v 11 1 12
v 11 1 11
v 11 1 10
v 11 1 -11
v 11 1 -12
v 11 1 -13
v 11 2 11
v 11 2 10
v 11 2 9
v 11 2 -10
v 11 2 -11
v 11 2 -12
v 11 3 10
v 11 3 9
v 11 3 8
v 11 3 -9
v 11 3 -10
v 11 3 -11
v 11 4 9
v 11 4 8
v 11 4 7
v 11 4 -8
v 11 4 -9
v 11 4 -10
v 11 5 8
v 11 5 7
v 11 5 6
v 11 5 -7
v 11 5 -8
v 11 5 -9
v 11 6 7
v 11 6 6
v 11 6 5
v 11 6 -6
v 11 6 -7
v 11 6 -8
v 11 7 6
v 11 7 5
v 11 7 4
v 11 7 -5
v 11 7 -6
v 11 7 -7
v 11 8 5
v 11 8 4
v 11 8 -5
v 11 8 -6
v 11 19 12
v 11 19 4
v 11 19 -5
v 11 19 -13
v 12 0 12
v 12 0 11
v 12 0 -12
v 12 0 -13
v 12 1 12
v 12 1 11
v 12 1 10
v 12 1 -11
v 12 1 -12
v 12 1 -13
v 12 2 11
v 12 2 10
v 12 2 9
v 12 2 -10
v 12 2 -11
v 12 2 -12
v 12 3 10
v 12 3 9
v 12 3 8
v 12 3 -9
v 12 3 -10
v 12 3 -11
v 12 4 9
v 12 4 8
v 12 4 7
v 12 4 -8
v 12 4 -9
v 12 4 -10
v 12 5 8
v 12 5 7
v 12 5 6
v 12 5 -7
v 12 5 -8
v 12 5 -9
v 12 6 7
v 12 6 6
v 12 6 5
v 12 6 -6
v 12 6 -7
v 12 6 -8
v 12 7 6
v 12 7 5
v 12 7 4
v 12 7 -5
v 12 7 -6
v 12 7 -7
v 12 8 5
v 12 8 4
v 12 8 -5
v 12 8 -6
v 12 9 3
v 12 9 -4
v 12 19 13
v 12 19 4
v 12 19 3
v 12 19 2
v 12 19 -3
v 12 19 -4
v 12 19 -5
v 12 19 -14
v 12 20 13
v 12 20 2
v 12 20 -3
v 12 20 -14
v -16 19 13
v -16 20 13
v 12 19 13
v 12 20 13
v -15 0 12
v -15 19 12
v 11 0 12
v 11 1 12
v 11 19 12
v 12 0 12
v 12 1 12
v -14 20 11
v -14 21 11
v -14 22 11
v -9 25 11
v -9 30 11
v -5 25 11
v -5 30 11
v 9 22 11
v 9 23 11
v 10 20 11
v 10 21 11
v 10 23 11
v 11 1 11
v 11 2 11
v 12 1 11
v 12 2 11
v 11 2 10
v 11 3 10
v 12 2 10
v 12 3 10
v 9 22 9
v 9 23 9
v 10 22 9
v 10 23 9
v 11 3 9
v 11 4 9
v 12 3 9
v 12 4 9
v -7 22 8
v -7 25 8
v -6 22 8
v -6 25 8
v 11 4 8
v 11 5 8
v 12 4 8
v 12 5 8
v 9 22 7
v 9 23 7
v 10 22 7
v 10 23 7
v 11 5 7
v 11 6 7
v 12 5 7
v 12 6 7
v 11 6 6
v 11 7 6
v 12 6 6
v 12 7 6
v 9 22 5
v 9 23 5
v 10 22 5
v 10 23 5
v 11 7 5
v 11 8 5
v 12 7 5
v 12 8 5
v 11 8 4
v 11 19 4
v 12 8 4
v 12 19 4
v 3 19 -3
v 3 20 -3
v 12 19 -3
v 12 20 -3
v 2 9 -4
v 2 19 -4
v 11 9 -4
v 11 19 -4
v 12 9 -4
v 12 19 -4
v 1 20 -5
v 1 21 -5
v 1 22 -5
v 9 22 -5
v 9 23 -5
v 10 20 -5
v 10 21 -5
v 10 23 -5
v 11 7 -5
v 11 8 -5
v 12 7 -5
v 12 8 -5
v 11 6 -6
v 11 7 -6
v 12 6 -6
v 12 7 -6
v 9 22 -7
v 9 23 -7
v 10 22 -7
v 10 23 -7
v 11 5 -7
v 11 6 -7
v 12 5 -7
v 12 6 -7
v 11 4 -8
v 11 5 -8
v 12 4 -8
v 12 5 -8
v 9 22 -9
v 9 23 -9
v 10 22 -9
v 10 23 -9
v 11 3 -9
v 11 4 -9
v 12 3 -9
v 12 4 -9
v 11 2 -10
v 11 3 -10
v 12 2 -10
v 12 3 -10
v 9 22 -11
v 9 23 -11
v 10 22 -11
v 10 23 -11
v 11 1 -11
v 11 2 -11
v 12 1 -11
v 12 2 -11
v 11 0 -12
v 11 1 -12
v 12 0 -12
v 12 1 -12
v 11 0 11
v 11 1 11
v 12 0 11
v 12 1 11
v 9 22 10
v 9 23 10
v 10 22 10
v 10 23 10
v 11 1 10
v 11 2 10
v 12 1 10
v 12 2 10
v 11 2 9
v 11 3 9
v 12 2 9
v 12 3 9
v 9 22 8
v 9 23 8
v 10 22 8
v 10 23 8
v 11 3 8
v 11 4 8
v 12 3 8
v 12 4 8
v -7 22 7
v -7 25 7
v -6 22 7
v -6 25 7
v 11 4 7
v 11 5 7
v 12 4 7
v 12 5 7
v 9 22 6
v 9 23 6
v 10 22 6
v 10 23 6
v 11 5 6
v 11 6 6
v 12 5 6
v 12 6 6
v 11 6 5
v 11 7 5
v 12 6 5
v 12 7 5
v -9 25 4
v -9 30 4
v -5 25 4
v -5 30 4
v 1 20 4
v 1 21 4
v 1 22 4
v 9 22 4
v 9 23 4
v 10 20 4
v 10 21 4
v 10 23 4
v 11 7 4
v 11 8 4
v 12 7 4
v 12 8 4
v 2 9 3
v 2 19 3
v 11 9 3
v 11 19 3
v 12 9 3
v 12 19 3
v 3 19 2
v 3 20 2
v 12 19 2
v 12 20 2
v 11 8 -5
v 11 19 -5
v 12 8 -5
v 12 19 -5
v 9 22 -6
v 9 23 -6
v 10 22 -6
v 10 23 -6
v 11 7 -6
v 11 8 -6
v 12 7 -6
v 12 8 -6
v 11 6 -7
v 11 7 -7
v 12 6 -7
v 12 7 -7
v 9 22 -8
v 9 23 -8
v 10 22 -8
v 10 23 -8
v 11 5 -8
v 11 6 -8
v 12 5 -8
v 12 6 -8
v 11 4 -9
v 11 5 -9
v 12 4 -9
v 12 5 -9
v 9 22 -10
v 9 23 -10
v 10 22 -10
v 10 23 -10
v 11 3 -10
v 11 4 -10
v 12 3 -10
v 12 4 -10
v 11 2 -11
v 11 3 -11
v 12 2 -11
v 12 3 -11
v -14 20 -12
v -14 21 -12
v -14 22 -12
v 9 22 -12
v 9 23 -12
v 10 20 -12
v 10 21 -12
v 10 23 -12
v 11 1 -12
v 11 2 -12
v 12 1 -12
v 12 2 -12
v -15 0 -13
v -15 19 -13
v 11 0 -13
v 11 1 -13
v 11 19 -13
v 12 0 -13
v 12 1 -13
v -16 19 -14
v -16 20 -14
v 12 19 -14
v 12 20 -14
v -15 0 12
v 11 0 12
v 12 0 12
v 11 0 11
v 12 0 11
v 11 0 -12
v 12 0 -12
v -15 0 -13
v 11 0 -13
v 12 0 -13
v 11 1 11
v 12 1 11
v 11 1 10
v 12 1 10
v 11 1 -11
v 12 1 -11
v 11 1 -12
v 12 1 -12
v 11 2 10
v 12 2 10
v 11 2 9
v 12 2 9
v 11 2 -10
v 12 2 -10
v 11 2 -11
v 12 2 -11
v 11 3 9
v 12 3 9
v 11 3 8
v 12 3 8
v 11 3 -9
v 12 3 -9
v 11 3 -10
v 12 3 -10
v 11 4 8
v 12 4 8
v 11 4 7
v 12 4 7
v 11 4 -8
v 12 4 -8
v 11 4 -9
v 12 4 -9
v 11 5 7
v 12 5 7
v 11 5 6
v 12 5 6
v 11 5 -7
v 12 5 -7
v 11 5 -8
v 12 5 -8
v 11 6 6
v 12 6 6
v 11 6 5
v 12 6 5
v 11 6 -6
v 12 6 -6
v 11 6 -7
v 12 6 -7
v 11 7 5
v 12 7 5
v 11 7 4
v 12 7 4
v 11 7 -5
v 12 7 -5
v 11 7 -6
v 12 7 -6
v 11 8 4
v 12 8 4
v 11 8 -5
v 12 8 -5
v -16 19 13
v 12 19 13
v -15 19 12
v 11 19 12
v 11 19 4
v 12 19 4
v 2 19 3
v 11 19 3
v 12 19 3
v 3 19 2
v 12 19 2
v 3 19 -3
v 12 19 -3
v 2 19 -4
v 11 19 -4
v 12 19 -4
v 11 19 -5
v 12 19 -5
v -15 19 -13
v 11 19 -13
v -16 19 -14
v 12 19 -14
v -9 25 11
v -5 25 11
v -7 25 8
v -6 25 8
v -7 25 7
v -6 25 7
v -9 25 4
v -5 25 4
v 11 1 12
v 12 1 12
v 11 1 11
v 12 1 11
v 11 1 -12
v 12 1 -12
v 11 1 -13
v 12 1 -13
v 11 2 11
v 12 2 11
v 11 2 10
v 12 2 10
v 11 2 -11
v 12 2 -11
v 11 2 -12
v 12 2 -12
v 11 3 10
v 12 3 10
v 11 3 9
v 12 3 9
v 11 3 -10
v 12 3 -10
v 11 3 -11
v 12 3 -11
v 11 4 9
v 12 4 9
v 11 4 8
v 12 4 8
v 11 4 -9
v 12 4 -9
v 11 4 -10
v 12 4 -10
v 11 5 8
v 12 5 8
v 11 5 7
v 12 5 7
v 11 5 -8
v 12 5 -8
v 11 5 -9
v 12 5 -9
v 11 6 7
v 12 6 7
v 11 6 6
v 12 6 6
v 11 6 -7
v 12 6 -7
v 11 6 -8
v 12 6 -8
v 11 7 6
v 12 7 6
v 11 7 5
v 12 7 5
v 11 7 -6
v 12 7 -6
v 11 7 -7
v 12 7 -7
v 11 8 5
v 12 8 5
v 11 8 4
v 12 8 4
v 11 8 -5
v 12 8 -5
v 11 8 -6
v 12 8 -6
v 2 9 3
v 11 9 3
v 12 9 3
v 2 9 -4
v 11 9 -4
v 12 9 -4
v -16 20 13
v 12 20 13
v -15 20 12
v 11 20 12
v -14 20 11
v 10 20 11
v 1 20 4
v 10 20 4
v 2 20 3
v 11 20 3
v 3 20 2
v 12 20 2
v 3 20 -3
v 12 20 -3
v 2 20 -4
v 11 20 -4
v 1 20 -5
v 10 20 -5
v -14 20 -12
v 10 20 -12
v -15 20 -13
v 11 20 -13
v -16 20 -14
v 12 20 -14
v -14 22 11
v 9 22 11
v 9 22 10
v 10 22 10
v 9 22 9
v 10 22 9
v -7 22 8
v -6 22 8
v 9 22 8
v 10 22 8
v -7 22 7
v -6 22 7
v 9 22 7
v 10 22 7
v 9 22 6
v 10 22 6
v 9 22 5
v 10 22 5
v 1 22 4
v 9 22 4
v 1 22 -5
v 9 22 -5
v 9 22 -6
v 10 22 -6
v 9 22 -7
v 10 22 -7
v 9 22 -8
v 10 22 -8
v 9 22 -9
v 10 22 -9
v 9 22 -10
v 10 22 -10
v 9 22 -11
v 10 22 -11
v -14 22 -12
v 9 22 -12
v 9 23 11
v 10 23 11
v 9 23 10
v 10 23 10
v 9 23 9
v 10 23 9
v 9 23 8
v 10 23 8
v 9 23 7
v 10 23 7
v 9 23 6
v 10 23 6
v 9 23 5
v 10 23 5
v 9 23 4
v 10 23 4
v 9 23 -5
v 10 23 -5
v 9 23 -6
v 10 23 -6
v 9 23 -7
v 10 23 -7
v 9 23 -8
v 10 23 -8
v 9 23 -9
v 10 23 -9
v 9 23 -10
v 10 23 -10
v 9 23 -11
v 10 23 -11
v 9 23 -12
v 10 23 -12
v -9 30 11
v -5 30 11
v -9 30 4
v -5 30 4

# faces
f 3/3/1 2/3/1 1/3/1
f 4/3/1 2/3/1 3/3/1
f 7/2/1 6/2/1 5/2/1
f 8/2/1 6/2/1 7/2/1
f 11/2/1 10/2/1 9/2/1
f 12/2/1 10/2/1 11/2/1
f 13/3/1 12/3/1 11/3/1
f 14/3/1 12/3/1 13/3/1
f 17/3/1 16/3/1 15/3/1
f 18/3/1 16/3/1 17/3/1
f 21/3/1 20/3/1 19/3/1
f 22/3/1 20/3/1 21/3/1
f 39/3/1 24/3/1 23/3/1
f 40/3/1 24/3/1 39/3/1
f 41/3/1 26/3/1 25/3/1
f 42/3/1 26/3/1 41/3/1
f 43/3/1 28/3/1 27/3/1
f 44/3/1 28/3/1 43/3/1
f 45/3/1 30/3/1 29/3/1
f 46/3/1 30/3/1 45/3/1
f 47/3/1 32/3/1 31/3/1
f 48/3/1 32/3/1 47/3/1
f 49/3/1 34/3/1 33/3/1
f 50/3/1 34/3/1 49/3/1
f 51/3/1 36/3/1 35/3/1
f 52/3/1 36/3/1 51/3/1
f 53/3/1 38/3/1 37/3/1
f 54/3/1 38/3/1 53/3/1
f 55/3/2 56/3/2 57/3/2
f 57/3/2 56/3/2 58/3/2
f 59/3/2 60/3/2 61/3/2
f 61/3/2 60/3/2 62/3/2
f 59/3/2 61/3/2 63/3/2
f 61/1/2 62/1/2 63/1/2
f 62/3/2 60/3/2 64/3/2
f 63/1/2 62/1/2 64/1/2
f 59/3/2 63/3/2 65/3/2
f 63/3/2 64/3/2 65/3/2
f 64/3/2 60/3/2 66/3/2
f 65/3/2 64/3/2 66/3/2
f 67/2/2 68/2/2 69/2/2
f 69/2/2 68/2/2 70/2/2
f 69/3/2 70/3/2 71/3/2
f 71/3/2 70/3/2 72/3/2
f 73/2/2 74/2/2 75/2/2
f 75/2/2 74/2/2 76/2/2
f 77/3/2 78/3/2 79/3/2
f 79/3/2 78/3/2 80/3/2
f 81/2/2 82/2/2 85/2/2
f 85/2/2 82/2/2 86/2/2
f 83/2/2 84/2/2 87/2/2
f 87/2/2 84/2/2 88/2/2
f 85/3/2 86/3/2 89/3/2
f 89/3/2 86/3/2 90/3/2
f 90/3/2 86/3/2 91/3/2
f 91/3/2 86/3/2 92/3/2
f 92/3/2 86/3/2 93/3/2
f 93/3/2 86/3/2 94/3/2
f 87/3/2 88/3/2 95/3/2
f 95/3/2 88/3/2 96/3/2
f 96/3/2 88/3/2 97/3/2
f 97/3/2 88/3/2 98/3/2
f 98/3/2 88/3/2 99/3/2
f 99/3/2 88/3/2 100/3/2
f 85/3/2 89/3/2 101/3/2
f 101/3/2 89/3/2 102/3/2
f 90/3/2 91/3/2 103/3/2
f 103/3/2 91/3/2 104/3/2
f 92/3/2 93/3/2 105/3/2
f 105/3/2 93/3/2 106/3/2
f 94/3/2 86/3/2 107/3/2
f 107/3/2 86/3/2 108/3/2
f 87/3/2 95/3/2 109/3/2
f 109/3/2 95/3/2 110/3/2
f 96/3/2 97/3/2 111/3/2
f 111/3/2 97/3/2 112/3/2
f 98/3/2 99/3/2 113/3/2
f 113/3/2 99/3/2 114/3/2
f 100/3/2 88/3/2 115/3/2
f 115/3/2 88/3/2 116/3/2
f 117/2/2 118/2/2 120/2/2
f 120/2/2 118/2/2 121/2/2
f 121/2/2 118/2/2 122/2/2
f 122/2/2 118/2/2 123/2/2
f 119/2/2 120/2/2 125/2/2
f 121/2/2 122/2/2 126/2/2
f 126/2/2 122/2/2 127/2/2
f 127/2/2 122/2/2 128/2/2
f 128/2/2 122/2/2 129/2/2
f 123/2/2 124/2/2 130/2/2
f 125/2/2 126/2/2 131/2/2
f 127/2/2 128/2/2 132/2/2
f 132/2/2 128/2/2 133/2/2
f 133/2/2 128/2/2 134/2/2
f 134/2/2 128/2/2 135/2/2
f 129/2/2 130/2/2 136/2/2
f 131/2/2 132/2/2 137/2/2
f 133/2/2 134/2/2 138/2/2
f 138/2/2 134/2/2 139/2/2
f 139/2/2 134/2/2 140/2/2
f 140/2/2 134/2/2 141/2/2
f 135/2/2 136/2/2 142/2/2
f 137/2/2 138/2/2 143/2/2
f 139/2/2 140/2/2 144/2/2
f 144/2/2 140/2/2 145/2/2
f 145/2/2 140/2/2 146/2/2
f 146/2/2 140/2/2 147/2/2
f 141/2/2 142/2/2 148/2/2
f 143/2/2 144/2/2 149/2/2
f 145/2/2 146/2/2 150/2/2
f 150/2/2 146/2/2 151/2/2
f 151/2/2 146/2/2 152/2/2
f 152/2/2 146/2/2 153/2/2
f 147/2/2 148/2/2 154/2/2
f 149/2/2 150/2/2 155/2/2
f 151/2/2 152/2/2 156/2/2
f 156/2/2 152/2/2 157/2/2
f 157/2/2 152/2/2 158/2/2
f 158/2/2 152/2/2 159/2/2
f 153/2/2 154/2/2 160/2/2
f 155/2/2 156/2/2 161/2/2
f 157/2/2 158/2/2 162/2/2
f 162/2/2 158/2/2 163/2/2
f 159/2/2 160/2/2 164/2/2
f 119/2/2 125/2/2 165/2/2
f 125/2/2 131/2/2 165/2/2
f 131/2/2 137/2/2 165/2/2
f 161/2/2 162/2/2 165/2/2
f 137/2/2 143/2/2 165/2/2
f 155/2/2 161/2/2 165/2/2
f 143/2/2 149/2/2 165/2/2
f 149/2/2 155/2/2 165/2/2
f 165/2/2 162/2/2 166/2/2
f 163/2/2 164/2/2 167/2/2
f 164/2/2 160/2/2 168/2/2
f 167/2/2 164/2/2 168/2/2
f 130/2/2 124/2/2 168/2/2
f 136/2/2 130/2/2 168/2/2
f 142/2/2 136/2/2 168/2/2
f 148/2/2 142/2/2 168/2/2
f 154/2/2 148/2/2 168/2/2
f 160/2/2 154/2/2 168/2/2
f 169/3/2 170/3/2 173/3/2
f 173/3/2 170/3/2 174/3/2
f 171/3/2 172/3/2 177/3/2
f 177/3/2 172/3/2 178/3/2
f 174/3/2 175/3/2 179/3/2
f 179/3/2 175/3/2 180/3/2
f 176/3/2 177/3/2 183/3/2
f 183/3/2 177/3/2 184/3/2
f 180/3/2 181/3/2 185/3/2
f 185/3/2 181/3/2 186/3/2
f 182/3/2 183/3/2 189/3/2
f 189/3/2 183/3/2 190/3/2
f 186/3/2 187/3/2 191/3/2
f 191/3/2 187/3/2 192/3/2
f 188/3/2 189/3/2 195/3/2
f 195/3/2 189/3/2 196/3/2
f 192/3/2 193/3/2 197/3/2
f 197/3/2 193/3/2 198/3/2
f 194/3/2 195/3/2 201/3/2
f 201/3/2 195/3/2 202/3/2
f 198/3/2 199/3/2 203/3/2
f 203/3/2 199/3/2 204/3/2
f 200/3/2 201/3/2 207/3/2
f 207/3/2 201/3/2 208/3/2
f 204/3/2 205/3/2 209/3/2
f 209/3/2 205/3/2 210/3/2
f 206/3/2 207/3/2 213/3/2
f 213/3/2 207/3/2 214/3/2
f 210/3/2 211/3/2 215/3/2
f 215/3/2 211/3/2 216/3/2
f 212/3/2 213/3/2 217/3/2
f 217/3/2 213/3/2 218/3/2
f 216/3/2 217/3/2 219/3/2
f 219/3/2 217/3/2 220/3/2
f 216/3/2 219/3/2 222/3/2
f 222/3/2 219/3/2 223/3/2
f 220/3/2 217/3/2 226/3/2
f 226/3/2 217/3/2 227/3/2
f 222/3/2 223/3/2 229/3/2
f 221/3/2 222/3/2 229/3/2
f 223/3/2 224/3/2 229/3/2
f 229/3/2 224/3/2 230/3/2
f 226/3/2 227/3/2 231/3/2
f 225/3/2 226/3/2 231/3/2
f 227/3/2 228/3/2 231/3/2
f 231/3/2 228/3/2 232/3/2
f 235/3/3 234/3/3 233/3/3
f 236/3/3 234/3/3 235/3/3
f 239/2/3 238/2/3 237/2/3
f 240/2/3 238/2/3 239/2/3
f 241/2/3 238/2/3 240/2/3
f 242/3/3 240/3/3 239/3/3
f 243/3/3 240/3/3 242/3/3
f 249/3/3 248/3/3 247/3/3
f 250/3/3 248/3/3 249/3/3
f 251/3/3 246/3/3 245/3/3
f 253/2/3 245/2/3 244/2/3
f 254/3/3 252/3/3 251/3/3
f 254/2/3 245/2/3 253/2/3
f 254/3/3 251/3/3 245/3/3
f 255/3/3 252/3/3 254/3/3
f 258/3/3 257/3/3 256/3/3
f 259/3/3 257/3/3 258/3/3
f 262/3/3 261/3/3 260/3/3
f 263/3/3 261/3/3 262/3/3
f 266/3/3 265/3/3 264/3/3
f 267/3/3 265/3/3 266/3/3
f 270/3/3 269/3/3 268/3/3
f 271/3/3 269/3/3 270/3/3
f 274/3/3 273/3/3 272/3/3
f 275/3/3 273/3/3 274/3/3
f 278/3/3 277/3/3 276/3/3
f 279/3/3 277/3/3 278/3/3
f 282/3/3 281/3/3 280/3/3
f 283/3/3 281/3/3 282/3/3
f 286/3/3 285/3/3 284/3/3
f 287/3/3 285/3/3 286/3/3
f 290/3/3 289/3/3 288/3/3
f 291/3/3 289/3/3 290/3/3
f 294/3/3 293/3/3 292/3/3
f 295/3/3 293/3/3 294/3/3
f 298/3/3 297/3/3 296/3/3
f 299/3/3 297/3/3 298/3/3
f 302/3/3 301/3/3 300/3/3
f 303/3/3 301/3/3 302/3/3
f 306/3/3 305/3/3 304/3/3
f 307/3/3 305/3/3 306/3/3
f 310/2/3 309/2/3 308/2/3
f 311/2/3 309/2/3 310/2/3
f 312/3/3 311/3/3 310/3/3
f 313/3/3 311/3/3 312/3/3
f 317/3/3 316/3/3 315/3/3
f 319/2/3 315/2/3 314/2/3
f 320/3/3 318/3/3 317/3/3
f 320/2/3 315/2/3 319/2/3
f 320/3/3 317/3/3 315/3/3
f 321/3/3 318/3/3 320/3/3
f 324/3/3 323/3/3 322/3/3
f 325/3/3 323/3/3 324/3/3
f 328/3/3 327/3/3 326/3/3
f 329/3/3 327/3/3 328/3/3
f 332/3/3 331/3/3 330/3/3
f 333/3/3 331/3/3 332/3/3
f 336/3/3 335/3/3 334/3/3
f 337/3/3 335/3/3 336/3/3
f 340/3/3 339/3/3 338/3/3
f 341/3/3 339/3/3 340/3/3
f 344/3/3 343/3/3 342/3/3
f 345/3/3 343/3/3 344/3/3
f 348/3/3 347/3/3 346/3/3
f 349/3/3 347/3/3 348/3/3
f 352/3/3 351/3/3 350/3/3
f 353/3/3 351/3/3 352/3/3
f 356/3/3 355/3/3 354/3/3
f 357/3/3 355/3/3 356/3/3
f 360/3/3 359/3/3 358/3/3
f 361/3/3 359/3/3 360/3/3
f 364/3/3 363/3/3 362/3/3
f 365/3/3 363/3/3 364/3/3
f 366/3/4 367/3/4 368/3/4
f 368/3/4 367/3/4 369/3/4
f 370/3/4 371/3/4 372/3/4
f 372/3/4 371/3/4 373/3/4
f 374/3/4 375/3/4 376/3/4
f 376/3/4 375/3/4 377/3/4
f 378/3/4 379/3/4 380/3/4
f 380/3/4 379/3/4 381/3/4
f 382/3/4 383/3/4 384/3/4
f 384/3/4 383/3/4 385/3/4
f 386/3/4 387/3/4 388/3/4
f 388/3/4 387/3/4 389/3/4
f 390/3/4 391/3/4 392/3/4
f 392/3/4 391/3/4 393/3/4
f 394/3/4 395/3/4 396/3/4
f 396/3/4 395/3/4 397/3/4
f 398/3/4 399/3/4 400/3/4
f 400/3/4 399/3/4 401/3/4
f 402/3/4 403/3/4 404/3/4
f 404/3/4 403/3/4 405/3/4
f 406/3/4 407/3/4 408/3/4
f 408/3/4 407/3/4 409/3/4
f 410/3/4 411/3/4 412/3/4
f 412/3/4 411/3/4 413/3/4
f 415/3/4 416/3/4 417/3/4
f 414/2/4 415/2/4 419/2/4
f 417/3/4 418/3/4 420/3/4
f 419/2/4 415/2/4 420/2/4
f 415/3/4 417/3/4 420/3/4
f 420/3/4 418/3/4 421/3/4
f 422/3/4 423/3/4 424/3/4
f 424/3/4 423/3/4 425/3/4
f 426/2/4 427/2/4 428/2/4
f 428/2/4 427/2/4 429/2/4
f 428/3/4 429/3/4 430/3/4
f 430/3/4 429/3/4 431/3/4
f 432/3/4 433/3/4 434/3/4
f 434/3/4 433/3/4 435/3/4
f 436/3/4 437/3/4 438/3/4
f 438/3/4 437/3/4 439/3/4
f 440/3/4 441/3/4 442/3/4
f 442/3/4 441/3/4 443/3/4
f 444/3/4 445/3/4 446/3/4
f 446/3/4 445/3/4 447/3/4
f 448/3/4 449/3/4 450/3/4
f 450/3/4 449/3/4 451/3/4
f 452/3/4 453/3/4 454/3/4
f 454/3/4 453/3/4 455/3/4
f 456/3/4 457/3/4 458/3/4
f 458/3/4 457/3/4 459/3/4
f 460/3/4 461/3/4 462/3/4
f 462/3/4 461/3/4 463/3/4
f 464/3/4 465/3/4 466/3/4
f 466/3/4 465/3/4 467/3/4
f 468/3/4 469/3/4 470/3/4
f 470/3/4 469/3/4 471/3/4
f 472/3/4 473/3/4 474/3/4
f 474/3/4 473/3/4 475/3/4
f 477/3/4 478/3/4 479/3/4
f 476/2/4 477/2/4 481/2/4
f 479/3/4 480/3/4 482/3/4
f 481/2/4 477/2/4 482/2/4
f 477/3/4 479/3/4 482/3/4
f 482/3/4 480/3/4 483/3/4
f 484/3/4 485/3/4 486/3/4
f 486/3/4 485/3/4 487/3/4
f 488/2/4 489/2/4 490/2/4
f 490/2/4 489/2/4 491/2/4
f 491/2/4 489/2/4 492/2/4
f 490/3/4 491/3/4 493/3/4
f 493/3/4 491/3/4 494/3/4
f 495/3/4 496/3/4 497/3/4
f 497/3/4 496/3/4 498/3/4
f 502/2/5 500/2/5 499/2/5
f 502/3/5 501/3/5 500/3/5
f 503/3/5 501/3/5 502/3/5
f 504/2/5 502/2/5 499/2/5
f 506/2/5 504/2/5 499/2/5
f 507/3/5 505/3/5 504/3/5
f 507/2/5 504/2/5 506/2/5
f 508/3/5 505/3/5 507/3/5
f 511/3/5 510/3/5 509/3/5
f 512/3/5 510/3/5 511/3/5
f 515/3/5 514/3/5 513/3/5
f 516/3/5 514/3/5 515/3/5
f 519/3/5 518/3/5 517/3/5
f 520/3/5 518/3/5 519/3/5
f 523/3/5 522/3/5 521/3/5
f 524/3/5 522/3/5 523/3/5
f 527/3/5 526/3/5 525/3/5
f 528/3/5 526/3/5 527/3/5
f 531/3/5 530/3/5 529/3/5
f 532/3/5 530/3/5 531/3/5
f 535/3/5 534/3/5 533/3/5
f 536/3/5 534/3/5 535/3/5
f 539/3/5 538/3/5 537/3/5
f 540/3/5 538/3/5 539/3/5
f 543/3/5 542/3/5 541/3/5
f 544/3/5 542/3/5 543/3/5
f 547/3/5 546/3/5 545/3/5
f 548/3/5 546/3/5 547/3/5
f 551/3/5 550/3/5 549/3/5
f 552/3/5 550/3/5 551/3/5
f 555/3/5 554/3/5 553/3/5
f 556/3/5 554/3/5 555/3/5
f 559/3/5 558/3/5 557/3/5
f 560/3/5 558/3/5 559/3/5
f 563/3/5 562/3/5 561/3/5
f 564/3/5 562/3/5 563/3/5
f 567/3/5 566/3/5 565/3/5
f 568/3/5 566/3/5 567/3/5
f 571/3/5 570/3/5 569/3/5
f 572/3/5 570/3/5 571/3/5
f 573/3/5 570/3/5 572/3/5
f 574/3/5 570/3/5 573/3/5
f 578/3/5 576/3/5 575/3/5
f 578/3/5 577/3/5 576/3/5
f 579/3/5 577/3/5 578/3/5
f 580/3/5 578/3/5 575/3/5
f 582/3/5 580/3/5 575/3/5
f 582/3/5 581/3/5 580/3/5
f 583/3/5 581/3/5 582/3/5
f 584/3/5 581/3/5 583/3/5
f 587/3/5 571/3/5 569/3/5
f 588/3/5 586/3/5 585/3/5
f 589/3/5 587/3/5 569/3/5
f 589/3/5 588/3/5 587/3/5
f 590/3/5 586/3/5 588/3/5
f 590/3/5 588/3/5 589/3/5
f 593/3/5 592/3/5 591/3/5
f 594/3/5 592/3/5 593/3/5
f 595/3/5 593/3/5 591/3/5
f 596/3/5 592/3/5 594/3/5
f 597/3/5 595/3/5 591/3/5
f 597/3/5 596/3/5 595/3/5
f 598/3/5 592/3/5 596/3/5
f 598/3/5 596/3/5 597/3/5
f 599/3/6 600/3/6 601/3/6
f 601/3/6 600/3/6 602/3/6
f 603/3/6 604/3/6 605/3/6
f 605/3/6 604/3/6 606/3/6
f 607/3/6 608/3/6 609/3/6
f 609/3/6 608/3/6 610/3/6
f 611/3/6 612/3/6 613/3/6
f 613/3/6 612/3/6 614/3/6
f 615/3/6 616/3/6 617/3/6
f 617/3/6 616/3/6 618/3/6
f 619/3/6 620/3/6 621/3/6
f 621/3/6 620/3/6 622/3/6
f 623/3/6 624/3/6 625/3/6
f 625/3/6 624/3/6 626/3/6
f 627/3/6 628/3/6 629/3/6
f 629/3/6 628/3/6 630/3/6
f 631/3/6 632/3/6 633/3/6
f 633/3/6 632/3/6 634/3/6
f 635/3/6 636/3/6 637/3/6
f 637/3/6 636/3/6 638/3/6
f 639/3/6 640/3/6 641/3/6
f 641/3/6 640/3/6 642/3/6
f 643/3/6 644/3/6 645/3/6
f 645/3/6 644/3/6 646/3/6
f 647/3/6 648/3/6 649/3/6
f 649/3/6 648/3/6 650/3/6
f 651/3/6 652/3/6 653/3/6
f 653/3/6 652/3/6 654/3/6
f 655/3/6 656/3/6 657/3/6
f 657/3/6 656/3/6 658/3/6
f 659/3/6 660/3/6 661/3/6
f 661/3/6 660/3/6 662/3/6
f 663/2/6 664/2/6 666/2/6
f 664/3/6 665/3/6 667/3/6
f 666/2/6 664/2/6 667/2/6
f 667/3/6 665/3/6 668/3/6
f 669/3/6 670/3/6 671/3/6
f 671/3/6 670/3/6 672/3/6
f 671/2/6 672/2/6 673/2/6
f 673/2/6 672/2/6 674/2/6
f 674/2/6 672/2/6 676/2/6
f 675/2/6 676/2/6 677/2/6
f 672/3/6 670/3/6 678/3/6
f 677/2/6 676/2/6 678/2/6
f 676/2/6 672/2/6 678/2/6
f 677/3/6 678/3/6 679/3/6
f 678/3/6 670/3/6 680/3/6
f 679/3/6 678/3/6 680/3/6
f 677/3/6 679/3/6 681/3/6
f 675/2/6 677/2/6 683/2/6
f 681/3/6 682/3/6 683/3/6
f 677/3/6 681/3/6 683/3/6
f 683/3/6 682/3/6 684/3/6
f 675/2/6 683/2/6 685/2/6
f 683/2/6 684/2/6 685/2/6
f 685/2/6 684/2/6 686/2/6
f 671/2/6 673/2/6 687/2/6
f 686/2/6 684/2/6 688/2/6
f 669/3/6 671/3/6 689/3/6
f 687/2/6 688/2/6 689/2/6
f 671/2/6 687/2/6 689/2/6
f 688/2/6 684/2/6 690/2/6
f 689/2/6 688/2/6 690/2/6
f 684/3/6 682/3/6 690/3/6
f 669/3/6 689/3/6 691/3/6
f 689/3/6 690/3/6 691/3/6
f 690/3/6 682/3/6 692/3/6
f 691/3/6 690/3/6 692/3/6
f 693/3/6 694/3/6 695/3/6
f 693/3/6 695/3/6 697/3/6
f 695/3/6 696/3/6 697/3/6
f 697/3/6 696/3/6 698/3/6
f 693/3/6 697/3/6 699/3/6
f 699/3/6 697/3/6 700/3/6
f 700/3/6 697/3/6 701/3/6
f 693/3/6 699/3/6 703/3/6
f 701/3/6 702/3/6 704/3/6
f 700/3/6 701/3/6 704/3/6
f 704/3/6 702/3/6 705/3/6
f 705/3/6 702/3/6 706/3/6
f 703/3/6 704/3/6 707/3/6
f 704/3/6 705/3/6 707/3/6
f 703/3/6 707/3/6 709/3/6
f 707/3/6 708/3/6 709/3/6
f 709/3/6 708/3/6 710/3/6
f 703/3/6 709/3/6 711/3/6
f 711/3/6 709/3/6 712/3/6
f 703/3/6 711/3/6 713/3/6
f 713/3/6 714/3/6 715/3/6
f 713/3/6 715/3/6 717/3/6
f 715/3/6 716/3/6 717/3/6
f 717/3/6 716/3/6 718/3/6
f 713/3/6 717/3/6 719/3/6
f 713/3/6 719/3/6 721/3/6
f 719/3/6 720/3/6 721/3/6
f 721/3/6 720/3/6 722/3/6
f 713/3/6 721/3/6 723/3/6
f 713/3/6 723/3/6 725/3/6
f 723/3/6 724/3/6 725/3/6
f 725/3/6 724/3/6 726/3/6
f 693/3/6 703/3/6 727/3/6
f 703/3/6 713/3/6 727/3/6
f 713/3/6 725/3/6 727/3/6
f 727/3/6 725/3/6 728/3/6
f 729/3/6 730/3/6 731/3/6
f 731/3/6 730/3/6 732/3/6
f 733/3/6 734/3/6 735/3/6
f 735/3/6 734/3/6 736/3/6
f 737/3/6 738/3/6 739/3/6
f 739/3/6 738/3/6 740/3/6
f 741/3/6 742/3/6 743/3/6
f 743/3/6 742/3/6 744/3/6
f 745/3/6 746/3/6 747/3/6
f 747/3/6 746/3/6 748/3/6
f 749/3/6 750/3/6 751/3/6
f 751/3/6 750/3/6 752/3/6
f 753/3/6 754/3/6 755/3/6
f 755/3/6 754/3/6 756/3/6
f 757/3/6 758/3/6 759/3/6
f 759/3/6 758/3/6 760/3/6
f 761/3/6 762/3/6 763/3/6
f 763/3/6 762/3/6 764/3/6
