# MagicaVoxel @ Ephtracy

# group
g untitled-1

# material
mtllib untitled-1.mtl
usemtl palette

# normals
vn -1 0 0
vn 1 0 0
vn 0 0 1
vn 0 0 -1
vn 0 -1 0
vn 0 1 0

# texcoords
vt 0.880859 0.5
vt 0.986328 0.5
vt 0.994141 0.5

# verts
v -4 27 8
v -4 27 -7
v -4 28 7
v -4 28 -6
v -4 33 7
v -4 33 -6
v -4 34 8
v -4 34 -7
v -2 34 8
v -2 34 7
v -2 36 8
v -2 36 7
v -1 34 7
v -1 34 5
v -1 35 6
v -1 35 5
v -1 36 7
v -1 36 6
v 0 30 15
v 0 30 8
v 0 31 15
v 0 31 8
v 1 27 1
v 1 27 -0
v 1 33 1
v 1 33 -0
v 2 34 -0
v 2 34 -2
v 2 36 -0
v 2 36 -1
v 2 36 -2
v 2 37 -0
v 2 37 -1
v 0 27 1
v 0 27 -0
v 0 33 1
v 0 33 -0
v 0 34 7
v 0 34 5
v 0 35 6
v 0 35 5
v 0 36 7
v 0 36 6
v 1 30 15
v 1 30 8
v 1 31 15
v 1 31 8
v 1 34 8
v 1 34 7
v 1 36 8
v 1 36 7
v 4 34 -0
v 4 34 -2
v 4 36 -0
v 4 36 -1
v 4 36 -2
v 4 37 -0
v 4 37 -1
v 5 27 8
v 5 27 -7
v 5 28 7
v 5 28 -6
v 5 33 7
v 5 33 -6
v 5 34 8
v 5 34 -7
v 0 30 15
v 0 31 15
v 1 30 15
v 1 31 15
v -4 27 8
v -4 34 8
v -3 28 8
v -3 33 8
v -2 34 8
v -2 36 8
v -1 34 8
v -1 35 8
v 0 30 8
v 0 31 8
v 0 34 8
v 0 35 8
v 1 30 8
v 1 31 8
v 1 34 8
v 1 36 8
v 4 28 8
v 4 33 8
v 5 27 8
v 5 34 8
v 0 27 -0
v 0 33 -0
v 1 27 -0
v 1 33 -0
v 2 34 -0
v 2 36 -0
v 2 37 -0
v 4 34 -0
v 4 36 -0
v 4 37 -0
v -2 34 7
v -2 36 7
v -1 34 7
v -1 36 7
v 0 34 7
v 0 36 7
v 1 34 7
v 1 36 7
v -1 35 6
v -1 36 6
v 0 35 6
v 0 36 6
v -1 34 5
v -1 35 5
v 0 34 5
v 0 35 5
v 0 27 1
v 0 33 1
v 1 27 1
v 1 33 1
v 2 36 -1
v 2 37 -1
v 4 36 -1
v 4 37 -1
v 2 34 -2
v 2 36 -2
v 4 34 -2
v 4 36 -2
v -4 27 -7
v -4 34 -7
v -3 28 -7
v -3 33 -7
v 4 28 -7
v 4 33 -7
v 5 27 -7
v 5 34 -7
v -4 27 8
v 5 27 8
v -3 27 7
v 4 27 7
v 0 27 1
v 1 27 1
v 0 27 -0
v 1 27 -0
v -3 27 -6
v 4 27 -6
v -4 27 -7
v 5 27 -7
v 0 30 15
v 1 30 15
v 0 30 8
v 1 30 8
v 0 33 1
v 1 33 1
v 0 33 -0
v 1 33 -0
v 0 31 15
v 1 31 15
v 0 31 8
v 1 31 8
v -4 34 8
v -2 34 8
v 1 34 8
v 5 34 8
v -3 34 7
v -2 34 7
v -1 34 7
v 0 34 7
v 1 34 7
v 4 34 7
v -1 34 5
v 0 34 5
v 2 34 -0
v 4 34 -0
v 2 34 -2
v 4 34 -2
v -3 34 -6
v 4 34 -6
v -4 34 -7
v 5 34 -7
v -1 35 6
v 0 35 6
v -1 35 5
v 0 35 5
v -2 36 8
v 1 36 8
v -2 36 7
v -1 36 7
v 0 36 7
v 1 36 7
v -1 36 6
v 0 36 6
v 2 36 -1
v 4 36 -1
v 2 36 -2
v 4 36 -2
v 2 37 -0
v 4 37 -0
v 2 37 -1
v 4 37 -1

# faces
f 3/3/1 2/3/1 1/3/1
f 4/3/1 2/3/1 3/3/1
f 5/3/1 3/3/1 1/3/1
f 5/2/1 4/2/1 3/2/1
f 6/3/1 2/3/1 4/3/1
f 6/2/1 4/2/1 5/2/1
f 7/3/1 5/3/1 1/3/1
f 7/3/1 6/3/1 5/3/1
f 8/3/1 2/3/1 6/3/1
f 8/3/1 6/3/1 7/3/1
f 11/3/1 10/3/1 9/3/1
f 12/3/1 10/3/1 11/3/1
f 15/3/1 14/3/1 13/3/1
f 16/3/1 14/3/1 15/3/1
f 17/3/1 15/3/1 13/3/1
f 18/3/1 15/3/1 17/3/1
f 21/3/1 20/3/1 19/3/1
f 22/3/1 20/3/1 21/3/1
f 25/2/1 24/2/1 23/2/1
f 26/2/1 24/2/1 25/2/1
f 29/2/1 28/2/1 27/2/1
f 30/2/1 28/2/1 29/2/1
f 31/2/1 28/2/1 30/2/1
f 32/3/1 30/3/1 29/3/1
f 33/3/1 30/3/1 32/3/1
f 34/2/2 35/2/2 36/2/2
f 36/2/2 35/2/2 37/2/2
f 38/3/2 39/3/2 40/3/2
f 40/3/2 39/3/2 41/3/2
f 38/3/2 40/3/2 42/3/2
f 42/3/2 40/3/2 43/3/2
f 44/3/2 45/3/2 46/3/2
f 46/3/2 45/3/2 47/3/2
f 48/3/2 49/3/2 50/3/2
f 50/3/2 49/3/2 51/3/2
f 52/2/2 53/2/2 54/2/2
f 54/2/2 53/2/2 55/2/2
f 55/2/2 53/2/2 56/2/2
f 54/3/2 55/3/2 57/3/2
f 57/3/2 55/3/2 58/3/2
f 59/3/2 60/3/2 61/3/2
f 61/3/2 60/3/2 62/3/2
f 59/3/2 61/3/2 63/3/2
f 61/2/2 62/2/2 63/2/2
f 62/3/2 60/3/2 64/3/2
f 63/2/2 62/2/2 64/2/2
f 59/3/2 63/3/2 65/3/2
f 63/3/2 64/3/2 65/3/2
f 64/3/2 60/3/2 66/3/2
f 65/3/2 64/3/2 66/3/2
f 69/3/3 68/3/3 67/3/3
f 70/3/3 68/3/3 69/3/3
f 73/3/3 72/3/3 71/3/3
f 74/3/3 72/3/3 73/3/3
f 75/3/3 72/3/3 74/3/3
f 77/3/3 75/3/3 74/3/3
f 77/3/3 76/3/3 75/3/3
f 78/3/3 76/3/3 77/3/3
f 79/2/3 74/2/3 73/2/3
f 80/2/3 74/2/3 79/2/3
f 81/3/3 77/3/3 74/3/3
f 81/1/3 78/1/3 77/1/3
f 82/3/3 76/3/3 78/3/3
f 82/1/3 78/1/3 81/1/3
f 83/2/3 79/2/3 73/2/3
f 84/2/3 74/2/3 80/2/3
f 85/3/3 81/3/3 74/3/3
f 85/3/3 82/3/3 81/3/3
f 86/3/3 76/3/3 82/3/3
f 86/3/3 82/3/3 85/3/3
f 87/3/3 73/3/3 71/3/3
f 87/2/3 84/2/3 83/2/3
f 87/2/3 83/2/3 73/2/3
f 88/2/3 74/2/3 84/2/3
f 88/2/3 84/2/3 87/2/3
f 88/3/3 85/3/3 74/3/3
f 89/3/3 87/3/3 71/3/3
f 89/3/3 88/3/3 87/3/3
f 90/3/3 85/3/3 88/3/3
f 90/3/3 88/3/3 89/3/3
f 93/2/3 92/2/3 91/2/3
f 94/2/3 92/2/3 93/2/3
f 98/2/3 96/2/3 95/2/3
f 99/3/3 97/3/3 96/3/3
f 99/2/3 96/2/3 98/2/3
f 100/3/3 97/3/3 99/3/3
f 101/3/4 102/3/4 103/3/4
f 103/3/4 102/3/4 104/3/4
f 105/3/4 106/3/4 107/3/4
f 107/3/4 106/3/4 108/3/4
f 109/3/4 110/3/4 111/3/4
f 111/3/4 110/3/4 112/3/4
f 113/3/4 114/3/4 115/3/4
f 115/3/4 114/3/4 116/3/4
f 117/2/4 118/2/4 119/2/4
f 119/2/4 118/2/4 120/2/4
f 121/3/4 122/3/4 123/3/4
f 123/3/4 122/3/4 124/3/4
f 125/2/4 126/2/4 127/2/4
f 127/2/4 126/2/4 128/2/4
f 129/3/4 130/3/4 131/3/4
f 131/3/4 130/3/4 132/3/4
f 129/3/4 131/3/4 133/3/4
f 131/2/4 132/2/4 133/2/4
f 132/3/4 130/3/4 134/3/4
f 133/2/4 132/2/4 134/2/4
f 129/3/4 133/3/4 135/3/4
f 133/3/4 134/3/4 135/3/4
f 134/3/4 130/3/4 136/3/4
f 135/3/4 134/3/4 136/3/4
f 139/3/5 138/3/5 137/3/5
f 140/3/5 138/3/5 139/3/5
f 141/2/5 140/2/5 139/2/5
f 142/2/5 140/2/5 141/2/5
f 143/2/5 141/2/5 139/2/5
f 144/2/5 140/2/5 142/2/5
f 145/3/5 139/3/5 137/3/5
f 145/2/5 144/2/5 143/2/5
f 145/2/5 143/2/5 139/2/5
f 146/2/5 140/2/5 144/2/5
f 146/2/5 144/2/5 145/2/5
f 146/3/5 138/3/5 140/3/5
f 147/3/5 145/3/5 137/3/5
f 147/3/5 146/3/5 145/3/5
f 148/3/5 138/3/5 146/3/5
f 148/3/5 146/3/5 147/3/5
f 151/3/5 150/3/5 149/3/5
f 152/3/5 150/3/5 151/3/5
f 155/2/5 154/2/5 153/2/5
f 156/2/5 154/2/5 155/2/5
f 157/3/6 158/3/6 159/3/6
f 159/3/6 158/3/6 160/3/6
f 161/3/6 162/3/6 165/3/6
f 165/3/6 162/3/6 166/3/6
f 163/3/6 164/3/6 169/3/6
f 169/3/6 164/3/6 170/3/6
f 166/2/6 167/2/6 171/2/6
f 165/2/6 166/2/6 171/2/6
f 169/2/6 170/2/6 172/2/6
f 168/2/6 169/2/6 172/2/6
f 172/2/6 170/2/6 173/2/6
f 171/2/6 172/2/6 173/2/6
f 170/3/6 164/3/6 174/3/6
f 173/2/6 170/2/6 174/2/6
f 171/2/6 173/2/6 175/2/6
f 174/3/6 164/3/6 176/3/6
f 171/2/6 175/2/6 177/2/6
f 175/2/6 176/2/6 177/2/6
f 161/3/6 165/3/6 177/3/6
f 165/2/6 171/2/6 177/2/6
f 176/3/6 164/3/6 178/3/6
f 177/2/6 176/2/6 178/2/6
f 161/3/6 177/3/6 179/3/6
f 177/3/6 178/3/6 179/3/6
f 178/3/6 164/3/6 180/3/6
f 179/3/6 178/3/6 180/3/6
f 181/3/6 182/3/6 183/3/6
f 183/3/6 182/3/6 184/3/6
f 185/3/6 186/3/6 187/3/6
f 187/3/6 186/3/6 188/3/6
f 188/3/6 186/3/6 189/3/6
f 189/3/6 186/3/6 190/3/6
f 188/3/6 189/3/6 191/3/6
f 191/3/6 189/3/6 192/3/6
f 193/2/6 194/2/6 195/2/6
f 195/2/6 194/2/6 196/2/6
f 197/3/6 198/3/6 199/3/6
f 199/3/6 198/3/6 200/3/6
